G04 #@! TF.GenerationSoftware,KiCad,Pcbnew,(6.0.11-0)*
G04 #@! TF.CreationDate,2023-08-06T14:05:06+09:00*
G04 #@! TF.ProjectId,RadioCtrl-Override,52616469-6f43-4747-926c-2d4f76657272,rev?*
G04 #@! TF.SameCoordinates,PX7bfa480PY7bfa480*
G04 #@! TF.FileFunction,Legend,Top*
G04 #@! TF.FilePolarity,Positive*
%FSLAX46Y46*%
G04 Gerber Fmt 4.6, Leading zero omitted, Abs format (unit mm)*
G04 Created by KiCad (PCBNEW (6.0.11-0)) date 2023-08-06 14:05:06*
%MOMM*%
%LPD*%
G01*
G04 APERTURE LIST*
%ADD10C,0.150000*%
%ADD11C,0.125000*%
%ADD12C,0.120000*%
%ADD13C,0.127000*%
%ADD14C,0.400000*%
G04 APERTURE END LIST*
D10*
X70294514Y41822645D02*
X69818302Y41822645D01*
X69770680Y41346432D01*
X69818302Y41394054D01*
X69913544Y41441675D01*
X70151651Y41441675D01*
X70246893Y41394054D01*
X70294514Y41346432D01*
X70342136Y41251190D01*
X70342136Y41013083D01*
X70294514Y40917841D01*
X70246893Y40870220D01*
X70151651Y40822598D01*
X69913544Y40822598D01*
X69818302Y40870220D01*
X69770680Y40917841D01*
X70627863Y41822645D02*
X70961212Y40822598D01*
X71294561Y41822645D01*
D11*
X69492857Y12977858D02*
X69464285Y12930239D01*
X69378571Y12882620D01*
X69321428Y12882620D01*
X69235714Y12930239D01*
X69178571Y13025477D01*
X69150000Y13120715D01*
X69121428Y13311191D01*
X69121428Y13454048D01*
X69150000Y13644524D01*
X69178571Y13739762D01*
X69235714Y13835000D01*
X69321428Y13882620D01*
X69378571Y13882620D01*
X69464285Y13835000D01*
X69492857Y13787381D01*
X70035714Y12882620D02*
X69750000Y12882620D01*
X69750000Y13882620D01*
X70235714Y12882620D02*
X70235714Y13882620D01*
X70578571Y12882620D02*
X70321428Y13454048D01*
X70578571Y13882620D02*
X70235714Y13311191D01*
X66667142Y12882620D02*
X66667142Y13882620D01*
X66810000Y13882620D01*
X66895714Y13835000D01*
X66952857Y13739762D01*
X66981428Y13644524D01*
X67010000Y13454048D01*
X67010000Y13311191D01*
X66981428Y13120715D01*
X66952857Y13025477D01*
X66895714Y12930239D01*
X66810000Y12882620D01*
X66667142Y12882620D01*
X67238571Y13168334D02*
X67524285Y13168334D01*
X67181428Y12882620D02*
X67381428Y13882620D01*
X67581428Y12882620D01*
X67695714Y13882620D02*
X68038571Y13882620D01*
X67867142Y12882620D02*
X67867142Y13882620D01*
X64312857Y13835000D02*
X64255714Y13882620D01*
X64170000Y13882620D01*
X64084285Y13835000D01*
X64027142Y13739762D01*
X63998571Y13644524D01*
X63970000Y13454048D01*
X63970000Y13311191D01*
X63998571Y13120715D01*
X64027142Y13025477D01*
X64084285Y12930239D01*
X64170000Y12882620D01*
X64227142Y12882620D01*
X64312857Y12930239D01*
X64341428Y12977858D01*
X64341428Y13311191D01*
X64227142Y13311191D01*
X64598571Y12882620D02*
X64598571Y13882620D01*
X64941428Y12882620D01*
X64941428Y13882620D01*
X65227142Y12882620D02*
X65227142Y13882620D01*
X65370000Y13882620D01*
X65455714Y13835000D01*
X65512857Y13739762D01*
X65541428Y13644524D01*
X65570000Y13454048D01*
X65570000Y13311191D01*
X65541428Y13120715D01*
X65512857Y13025477D01*
X65455714Y12930239D01*
X65370000Y12882620D01*
X65227142Y12882620D01*
X58647142Y12882620D02*
X58647142Y13882620D01*
X58847142Y13168334D01*
X59047142Y13882620D01*
X59047142Y12882620D01*
X59675714Y12977858D02*
X59647142Y12930239D01*
X59561428Y12882620D01*
X59504285Y12882620D01*
X59418571Y12930239D01*
X59361428Y13025477D01*
X59332857Y13120715D01*
X59304285Y13311191D01*
X59304285Y13454048D01*
X59332857Y13644524D01*
X59361428Y13739762D01*
X59418571Y13835000D01*
X59504285Y13882620D01*
X59561428Y13882620D01*
X59647142Y13835000D01*
X59675714Y13787381D01*
X60218571Y12882620D02*
X59932857Y12882620D01*
X59932857Y13882620D01*
X60761428Y12882620D02*
X60561428Y13358810D01*
X60418571Y12882620D02*
X60418571Y13882620D01*
X60647142Y13882620D01*
X60704285Y13835000D01*
X60732857Y13787381D01*
X60761428Y13692143D01*
X60761428Y13549286D01*
X60732857Y13454048D01*
X60704285Y13406429D01*
X60647142Y13358810D01*
X60418571Y13358810D01*
X61430000Y13882620D02*
X61630000Y12882620D01*
X61830000Y13882620D01*
X62372857Y12977858D02*
X62344285Y12930239D01*
X62258571Y12882620D01*
X62201428Y12882620D01*
X62115714Y12930239D01*
X62058571Y13025477D01*
X62030000Y13120715D01*
X62001428Y13311191D01*
X62001428Y13454048D01*
X62030000Y13644524D01*
X62058571Y13739762D01*
X62115714Y13835000D01*
X62201428Y13882620D01*
X62258571Y13882620D01*
X62344285Y13835000D01*
X62372857Y13787381D01*
X62972857Y12977858D02*
X62944285Y12930239D01*
X62858571Y12882620D01*
X62801428Y12882620D01*
X62715714Y12930239D01*
X62658571Y13025477D01*
X62630000Y13120715D01*
X62601428Y13311191D01*
X62601428Y13454048D01*
X62630000Y13644524D01*
X62658571Y13739762D01*
X62715714Y13835000D01*
X62801428Y13882620D01*
X62858571Y13882620D01*
X62944285Y13835000D01*
X62972857Y13787381D01*
D10*
X49167023Y48612620D02*
X48833690Y49088810D01*
X48595595Y48612620D02*
X48595595Y49612620D01*
X48976547Y49612620D01*
X49071785Y49565000D01*
X49119404Y49517381D01*
X49167023Y49422143D01*
X49167023Y49279286D01*
X49119404Y49184048D01*
X49071785Y49136429D01*
X48976547Y49088810D01*
X48595595Y49088810D01*
X50024166Y48612620D02*
X50024166Y49136429D01*
X49976547Y49231667D01*
X49881309Y49279286D01*
X49690833Y49279286D01*
X49595595Y49231667D01*
X50024166Y48660239D02*
X49928928Y48612620D01*
X49690833Y48612620D01*
X49595595Y48660239D01*
X49547976Y48755477D01*
X49547976Y48850715D01*
X49595595Y48945953D01*
X49690833Y48993572D01*
X49928928Y48993572D01*
X50024166Y49041191D01*
X50928928Y48612620D02*
X50928928Y49612620D01*
X50928928Y48660239D02*
X50833690Y48612620D01*
X50643214Y48612620D01*
X50547976Y48660239D01*
X50500357Y48707858D01*
X50452738Y48803096D01*
X50452738Y49088810D01*
X50500357Y49184048D01*
X50547976Y49231667D01*
X50643214Y49279286D01*
X50833690Y49279286D01*
X50928928Y49231667D01*
X51405119Y48612620D02*
X51405119Y49279286D01*
X51405119Y49612620D02*
X51357500Y49565000D01*
X51405119Y49517381D01*
X51452738Y49565000D01*
X51405119Y49612620D01*
X51405119Y49517381D01*
X52024166Y48612620D02*
X51928928Y48660239D01*
X51881309Y48707858D01*
X51833690Y48803096D01*
X51833690Y49088810D01*
X51881309Y49184048D01*
X51928928Y49231667D01*
X52024166Y49279286D01*
X52167023Y49279286D01*
X52262261Y49231667D01*
X52309880Y49184048D01*
X52357500Y49088810D01*
X52357500Y48803096D01*
X52309880Y48707858D01*
X52262261Y48660239D01*
X52167023Y48612620D01*
X52024166Y48612620D01*
X53357500Y48707858D02*
X53309880Y48660239D01*
X53167023Y48612620D01*
X53071785Y48612620D01*
X52928928Y48660239D01*
X52833690Y48755477D01*
X52786071Y48850715D01*
X52738452Y49041191D01*
X52738452Y49184048D01*
X52786071Y49374524D01*
X52833690Y49469762D01*
X52928928Y49565000D01*
X53071785Y49612620D01*
X53167023Y49612620D01*
X53309880Y49565000D01*
X53357500Y49517381D01*
X53643214Y49279286D02*
X54024166Y49279286D01*
X53786071Y49612620D02*
X53786071Y48755477D01*
X53833690Y48660239D01*
X53928928Y48612620D01*
X54024166Y48612620D01*
X54357500Y48612620D02*
X54357500Y49279286D01*
X54357500Y49088810D02*
X54405119Y49184048D01*
X54452738Y49231667D01*
X54547976Y49279286D01*
X54643214Y49279286D01*
X55119404Y48612620D02*
X55024166Y48660239D01*
X54976547Y48755477D01*
X54976547Y49612620D01*
X55500357Y48993572D02*
X56262261Y48993572D01*
X56928928Y49612620D02*
X57119404Y49612620D01*
X57214642Y49565000D01*
X57309880Y49469762D01*
X57357500Y49279286D01*
X57357500Y48945953D01*
X57309880Y48755477D01*
X57214642Y48660239D01*
X57119404Y48612620D01*
X56928928Y48612620D01*
X56833690Y48660239D01*
X56738452Y48755477D01*
X56690833Y48945953D01*
X56690833Y49279286D01*
X56738452Y49469762D01*
X56833690Y49565000D01*
X56928928Y49612620D01*
X57690833Y49279286D02*
X57928928Y48612620D01*
X58167023Y49279286D01*
X58928928Y48660239D02*
X58833690Y48612620D01*
X58643214Y48612620D01*
X58547976Y48660239D01*
X58500357Y48755477D01*
X58500357Y49136429D01*
X58547976Y49231667D01*
X58643214Y49279286D01*
X58833690Y49279286D01*
X58928928Y49231667D01*
X58976547Y49136429D01*
X58976547Y49041191D01*
X58500357Y48945953D01*
X59405119Y48612620D02*
X59405119Y49279286D01*
X59405119Y49088810D02*
X59452738Y49184048D01*
X59500357Y49231667D01*
X59595595Y49279286D01*
X59690833Y49279286D01*
X60024166Y48612620D02*
X60024166Y49279286D01*
X60024166Y49088810D02*
X60071785Y49184048D01*
X60119404Y49231667D01*
X60214642Y49279286D01*
X60309880Y49279286D01*
X60643214Y48612620D02*
X60643214Y49279286D01*
X60643214Y49612620D02*
X60595595Y49565000D01*
X60643214Y49517381D01*
X60690833Y49565000D01*
X60643214Y49612620D01*
X60643214Y49517381D01*
X61547976Y48612620D02*
X61547976Y49612620D01*
X61547976Y48660239D02*
X61452738Y48612620D01*
X61262261Y48612620D01*
X61167023Y48660239D01*
X61119404Y48707858D01*
X61071785Y48803096D01*
X61071785Y49088810D01*
X61119404Y49184048D01*
X61167023Y49231667D01*
X61262261Y49279286D01*
X61452738Y49279286D01*
X61547976Y49231667D01*
X62405119Y48660239D02*
X62309880Y48612620D01*
X62119404Y48612620D01*
X62024166Y48660239D01*
X61976547Y48755477D01*
X61976547Y49136429D01*
X62024166Y49231667D01*
X62119404Y49279286D01*
X62309880Y49279286D01*
X62405119Y49231667D01*
X62452738Y49136429D01*
X62452738Y49041191D01*
X61976547Y48945953D01*
X63500357Y49612620D02*
X63833690Y48612620D01*
X64167023Y49612620D01*
X65024166Y48612620D02*
X64452738Y48612620D01*
X64738452Y48612620D02*
X64738452Y49612620D01*
X64643214Y49469762D01*
X64547976Y49374524D01*
X64452738Y49326905D01*
X65452738Y48707858D02*
X65500357Y48660239D01*
X65452738Y48612620D01*
X65405119Y48660239D01*
X65452738Y48707858D01*
X65452738Y48612620D01*
X65881309Y49517381D02*
X65928928Y49565000D01*
X66024166Y49612620D01*
X66262261Y49612620D01*
X66357500Y49565000D01*
X66405119Y49517381D01*
X66452738Y49422143D01*
X66452738Y49326905D01*
X66405119Y49184048D01*
X65833690Y48612620D01*
X66452738Y48612620D01*
X48547976Y47907381D02*
X48595595Y47955000D01*
X48690833Y48002620D01*
X48928928Y48002620D01*
X49024166Y47955000D01*
X49071785Y47907381D01*
X49119404Y47812143D01*
X49119404Y47716905D01*
X49071785Y47574048D01*
X48500357Y47002620D01*
X49119404Y47002620D01*
X49738452Y48002620D02*
X49833690Y48002620D01*
X49928928Y47955000D01*
X49976547Y47907381D01*
X50024166Y47812143D01*
X50071785Y47621667D01*
X50071785Y47383572D01*
X50024166Y47193096D01*
X49976547Y47097858D01*
X49928928Y47050239D01*
X49833690Y47002620D01*
X49738452Y47002620D01*
X49643214Y47050239D01*
X49595595Y47097858D01*
X49547976Y47193096D01*
X49500357Y47383572D01*
X49500357Y47621667D01*
X49547976Y47812143D01*
X49595595Y47907381D01*
X49643214Y47955000D01*
X49738452Y48002620D01*
X50452738Y47907381D02*
X50500357Y47955000D01*
X50595595Y48002620D01*
X50833690Y48002620D01*
X50928928Y47955000D01*
X50976547Y47907381D01*
X51024166Y47812143D01*
X51024166Y47716905D01*
X50976547Y47574048D01*
X50405119Y47002620D01*
X51024166Y47002620D01*
X51357500Y48002620D02*
X51976547Y48002620D01*
X51643214Y47621667D01*
X51786071Y47621667D01*
X51881309Y47574048D01*
X51928928Y47526429D01*
X51976547Y47431191D01*
X51976547Y47193096D01*
X51928928Y47097858D01*
X51881309Y47050239D01*
X51786071Y47002620D01*
X51500357Y47002620D01*
X51405119Y47050239D01*
X51357500Y47097858D01*
X53119404Y48050239D02*
X52262261Y46764524D01*
X53643214Y48002620D02*
X53738452Y48002620D01*
X53833690Y47955000D01*
X53881309Y47907381D01*
X53928928Y47812143D01*
X53976547Y47621667D01*
X53976547Y47383572D01*
X53928928Y47193096D01*
X53881309Y47097858D01*
X53833690Y47050239D01*
X53738452Y47002620D01*
X53643214Y47002620D01*
X53547976Y47050239D01*
X53500357Y47097858D01*
X53452738Y47193096D01*
X53405119Y47383572D01*
X53405119Y47621667D01*
X53452738Y47812143D01*
X53500357Y47907381D01*
X53547976Y47955000D01*
X53643214Y48002620D01*
X54547976Y47574048D02*
X54452738Y47621667D01*
X54405119Y47669286D01*
X54357500Y47764524D01*
X54357500Y47812143D01*
X54405119Y47907381D01*
X54452738Y47955000D01*
X54547976Y48002620D01*
X54738452Y48002620D01*
X54833690Y47955000D01*
X54881309Y47907381D01*
X54928928Y47812143D01*
X54928928Y47764524D01*
X54881309Y47669286D01*
X54833690Y47621667D01*
X54738452Y47574048D01*
X54547976Y47574048D01*
X54452738Y47526429D01*
X54405119Y47478810D01*
X54357500Y47383572D01*
X54357500Y47193096D01*
X54405119Y47097858D01*
X54452738Y47050239D01*
X54547976Y47002620D01*
X54738452Y47002620D01*
X54833690Y47050239D01*
X54881309Y47097858D01*
X54928928Y47193096D01*
X54928928Y47383572D01*
X54881309Y47478810D01*
X54833690Y47526429D01*
X54738452Y47574048D01*
X56071785Y48050239D02*
X55214642Y46764524D01*
X56595595Y48002620D02*
X56690833Y48002620D01*
X56786071Y47955000D01*
X56833690Y47907381D01*
X56881309Y47812143D01*
X56928928Y47621667D01*
X56928928Y47383572D01*
X56881309Y47193096D01*
X56833690Y47097858D01*
X56786071Y47050239D01*
X56690833Y47002620D01*
X56595595Y47002620D01*
X56500357Y47050239D01*
X56452738Y47097858D01*
X56405119Y47193096D01*
X56357500Y47383572D01*
X56357500Y47621667D01*
X56405119Y47812143D01*
X56452738Y47907381D01*
X56500357Y47955000D01*
X56595595Y48002620D01*
X57786071Y48002620D02*
X57595595Y48002620D01*
X57500357Y47955000D01*
X57452738Y47907381D01*
X57357500Y47764524D01*
X57309880Y47574048D01*
X57309880Y47193096D01*
X57357500Y47097858D01*
X57405119Y47050239D01*
X57500357Y47002620D01*
X57690833Y47002620D01*
X57786071Y47050239D01*
X57833690Y47097858D01*
X57881309Y47193096D01*
X57881309Y47431191D01*
X57833690Y47526429D01*
X57786071Y47574048D01*
X57690833Y47621667D01*
X57500357Y47621667D01*
X57405119Y47574048D01*
X57357500Y47526429D01*
X57309880Y47431191D01*
X59595595Y47955000D02*
X59500357Y48002620D01*
X59357500Y48002620D01*
X59214642Y47955000D01*
X59119404Y47859762D01*
X59071785Y47764524D01*
X59024166Y47574048D01*
X59024166Y47431191D01*
X59071785Y47240715D01*
X59119404Y47145477D01*
X59214642Y47050239D01*
X59357500Y47002620D01*
X59452738Y47002620D01*
X59595595Y47050239D01*
X59643214Y47097858D01*
X59643214Y47431191D01*
X59452738Y47431191D01*
X59928928Y48002620D02*
X60500357Y48002620D01*
X60214642Y47002620D02*
X60214642Y48002620D01*
X61214642Y47050239D02*
X61119404Y47002620D01*
X60928928Y47002620D01*
X60833690Y47050239D01*
X60786071Y47145477D01*
X60786071Y47526429D01*
X60833690Y47621667D01*
X60928928Y47669286D01*
X61119404Y47669286D01*
X61214642Y47621667D01*
X61262261Y47526429D01*
X61262261Y47431191D01*
X60786071Y47335953D01*
X62119404Y47050239D02*
X62024166Y47002620D01*
X61833690Y47002620D01*
X61738452Y47050239D01*
X61690833Y47097858D01*
X61643214Y47193096D01*
X61643214Y47478810D01*
X61690833Y47574048D01*
X61738452Y47621667D01*
X61833690Y47669286D01*
X62024166Y47669286D01*
X62119404Y47621667D01*
X62547976Y47002620D02*
X62547976Y48002620D01*
X62976547Y47002620D02*
X62976547Y47526429D01*
X62928928Y47621667D01*
X62833690Y47669286D01*
X62690833Y47669286D01*
X62595595Y47621667D01*
X62547976Y47574048D01*
X63500357Y47002620D02*
X63690833Y47002620D01*
X63786071Y47050239D01*
X63833690Y47097858D01*
X63928928Y47240715D01*
X63976547Y47431191D01*
X63976547Y47812143D01*
X63928928Y47907381D01*
X63881309Y47955000D01*
X63786071Y48002620D01*
X63595595Y48002620D01*
X63500357Y47955000D01*
X63452738Y47907381D01*
X63405119Y47812143D01*
X63405119Y47574048D01*
X63452738Y47478810D01*
X63500357Y47431191D01*
X63595595Y47383572D01*
X63786071Y47383572D01*
X63881309Y47431191D01*
X63928928Y47478810D01*
X63976547Y47574048D01*
X64452738Y47002620D02*
X64643214Y47002620D01*
X64738452Y47050239D01*
X64786071Y47097858D01*
X64881309Y47240715D01*
X64928928Y47431191D01*
X64928928Y47812143D01*
X64881309Y47907381D01*
X64833690Y47955000D01*
X64738452Y48002620D01*
X64547976Y48002620D01*
X64452738Y47955000D01*
X64405119Y47907381D01*
X64357500Y47812143D01*
X64357500Y47574048D01*
X64405119Y47478810D01*
X64452738Y47431191D01*
X64547976Y47383572D01*
X64738452Y47383572D01*
X64833690Y47431191D01*
X64881309Y47478810D01*
X64928928Y47574048D01*
X65262261Y48002620D02*
X65928928Y48002620D01*
X65500357Y47002620D01*
X66833690Y47002620D02*
X66262261Y47002620D01*
X66547976Y47002620D02*
X66547976Y48002620D01*
X66452738Y47859762D01*
X66357500Y47764524D01*
X66262261Y47716905D01*
X57617380Y39899524D02*
X57617380Y39328096D01*
X57617380Y39613810D02*
X56617380Y39613810D01*
X56760238Y39518572D01*
X56855476Y39423334D01*
X56903095Y39328096D01*
X56617380Y40518572D02*
X56617380Y40613810D01*
X56665000Y40709048D01*
X56712619Y40756667D01*
X56807857Y40804286D01*
X56998333Y40851905D01*
X57236428Y40851905D01*
X57426904Y40804286D01*
X57522142Y40756667D01*
X57569761Y40709048D01*
X57617380Y40613810D01*
X57617380Y40518572D01*
X57569761Y40423334D01*
X57522142Y40375715D01*
X57426904Y40328096D01*
X57236428Y40280477D01*
X56998333Y40280477D01*
X56807857Y40328096D01*
X56712619Y40375715D01*
X56665000Y40423334D01*
X56617380Y40518572D01*
X57617380Y41280477D02*
X56617380Y41280477D01*
X57617380Y41851905D02*
X57045952Y41423334D01*
X56617380Y41851905D02*
X57188809Y41280477D01*
X18415476Y1770000D02*
X18320238Y1817620D01*
X18177380Y1817620D01*
X18034523Y1770000D01*
X17939285Y1674762D01*
X17891666Y1579524D01*
X17844047Y1389048D01*
X17844047Y1246191D01*
X17891666Y1055715D01*
X17939285Y960477D01*
X18034523Y865239D01*
X18177380Y817620D01*
X18272619Y817620D01*
X18415476Y865239D01*
X18463095Y912858D01*
X18463095Y1246191D01*
X18272619Y1246191D01*
X18891666Y817620D02*
X18891666Y1817620D01*
X19463095Y817620D01*
X19463095Y1817620D01*
X19939285Y817620D02*
X19939285Y1817620D01*
X20177380Y1817620D01*
X20320238Y1770000D01*
X20415476Y1674762D01*
X20463095Y1579524D01*
X20510714Y1389048D01*
X20510714Y1246191D01*
X20463095Y1055715D01*
X20415476Y960477D01*
X20320238Y865239D01*
X20177380Y817620D01*
X19939285Y817620D01*
X21653571Y1865239D02*
X20796428Y579524D01*
X22320238Y1341429D02*
X21986904Y1341429D01*
X21986904Y817620D02*
X21986904Y1817620D01*
X22463095Y1817620D01*
X22748809Y1817620D02*
X22986904Y817620D01*
X23177380Y1531905D01*
X23367857Y817620D01*
X23605952Y1817620D01*
X24701190Y1865239D02*
X23844047Y579524D01*
X25367857Y1341429D02*
X25510714Y1293810D01*
X25558333Y1246191D01*
X25605952Y1150953D01*
X25605952Y1008096D01*
X25558333Y912858D01*
X25510714Y865239D01*
X25415476Y817620D01*
X25034523Y817620D01*
X25034523Y1817620D01*
X25367857Y1817620D01*
X25463095Y1770000D01*
X25510714Y1722381D01*
X25558333Y1627143D01*
X25558333Y1531905D01*
X25510714Y1436667D01*
X25463095Y1389048D01*
X25367857Y1341429D01*
X25034523Y1341429D01*
X26034523Y817620D02*
X26034523Y1817620D01*
X26605952Y817620D02*
X26177380Y1389048D01*
X26605952Y1817620D02*
X26034523Y1246191D01*
X8959285Y27202620D02*
X9578333Y27202620D01*
X9245000Y26821667D01*
X9387857Y26821667D01*
X9483095Y26774048D01*
X9530714Y26726429D01*
X9578333Y26631191D01*
X9578333Y26393096D01*
X9530714Y26297858D01*
X9483095Y26250239D01*
X9387857Y26202620D01*
X9102142Y26202620D01*
X9006904Y26250239D01*
X8959285Y26297858D01*
X9911666Y27202620D02*
X10530714Y27202620D01*
X10197380Y26821667D01*
X10340238Y26821667D01*
X10435476Y26774048D01*
X10483095Y26726429D01*
X10530714Y26631191D01*
X10530714Y26393096D01*
X10483095Y26297858D01*
X10435476Y26250239D01*
X10340238Y26202620D01*
X10054523Y26202620D01*
X9959285Y26250239D01*
X9911666Y26297858D01*
X11149761Y27202620D02*
X11245000Y27202620D01*
X11340238Y27155000D01*
X11387857Y27107381D01*
X11435476Y27012143D01*
X11483095Y26821667D01*
X11483095Y26583572D01*
X11435476Y26393096D01*
X11387857Y26297858D01*
X11340238Y26250239D01*
X11245000Y26202620D01*
X11149761Y26202620D01*
X11054523Y26250239D01*
X11006904Y26297858D01*
X10959285Y26393096D01*
X10911666Y26583572D01*
X10911666Y26821667D01*
X10959285Y27012143D01*
X11006904Y27107381D01*
X11054523Y27155000D01*
X11149761Y27202620D01*
X12483095Y26202620D02*
X12149761Y26678810D01*
X11911666Y26202620D02*
X11911666Y27202620D01*
X12292619Y27202620D01*
X12387857Y27155000D01*
X12435476Y27107381D01*
X12483095Y27012143D01*
X12483095Y26869286D01*
X12435476Y26774048D01*
X12387857Y26726429D01*
X12292619Y26678810D01*
X11911666Y26678810D01*
X45552380Y22699524D02*
X45552380Y22128096D01*
X45552380Y22413810D02*
X44552380Y22413810D01*
X44695238Y22318572D01*
X44790476Y22223334D01*
X44838095Y22128096D01*
X44552380Y23318572D02*
X44552380Y23413810D01*
X44600000Y23509048D01*
X44647619Y23556667D01*
X44742857Y23604286D01*
X44933333Y23651905D01*
X45171428Y23651905D01*
X45361904Y23604286D01*
X45457142Y23556667D01*
X45504761Y23509048D01*
X45552380Y23413810D01*
X45552380Y23318572D01*
X45504761Y23223334D01*
X45457142Y23175715D01*
X45361904Y23128096D01*
X45171428Y23080477D01*
X44933333Y23080477D01*
X44742857Y23128096D01*
X44647619Y23175715D01*
X44600000Y23223334D01*
X44552380Y23318572D01*
X45552380Y24080477D02*
X44552380Y24080477D01*
X45552380Y24651905D02*
X44980952Y24223334D01*
X44552380Y24651905D02*
X45123809Y24080477D01*
X1722380Y36886191D02*
X722380Y36886191D01*
X1198571Y36886191D02*
X1198571Y37457620D01*
X1722380Y37457620D02*
X722380Y37457620D01*
X1722380Y37933810D02*
X722380Y37933810D01*
X1436666Y38267143D01*
X722380Y38600477D01*
X1722380Y38600477D01*
X1722380Y39600477D02*
X1722380Y39029048D01*
X1722380Y39314762D02*
X722380Y39314762D01*
X865238Y39219524D01*
X960476Y39124286D01*
X1008095Y39029048D01*
X722380Y40219524D02*
X722380Y40314762D01*
X770000Y40410000D01*
X817619Y40457620D01*
X912857Y40505239D01*
X1103333Y40552858D01*
X1341428Y40552858D01*
X1531904Y40505239D01*
X1627142Y40457620D01*
X1674761Y40410000D01*
X1722380Y40314762D01*
X1722380Y40219524D01*
X1674761Y40124286D01*
X1627142Y40076667D01*
X1531904Y40029048D01*
X1341428Y39981429D01*
X1103333Y39981429D01*
X912857Y40029048D01*
X817619Y40076667D01*
X770000Y40124286D01*
X722380Y40219524D01*
X1817619Y40743334D02*
X1817619Y41505239D01*
X1674761Y41695715D02*
X1722380Y41838572D01*
X1722380Y42076667D01*
X1674761Y42171905D01*
X1627142Y42219524D01*
X1531904Y42267143D01*
X1436666Y42267143D01*
X1341428Y42219524D01*
X1293809Y42171905D01*
X1246190Y42076667D01*
X1198571Y41886191D01*
X1150952Y41790953D01*
X1103333Y41743334D01*
X1008095Y41695715D01*
X912857Y41695715D01*
X817619Y41743334D01*
X770000Y41790953D01*
X722380Y41886191D01*
X722380Y42124286D01*
X770000Y42267143D01*
X722380Y42886191D02*
X722380Y43076667D01*
X770000Y43171905D01*
X865238Y43267143D01*
X1055714Y43314762D01*
X1389047Y43314762D01*
X1579523Y43267143D01*
X1674761Y43171905D01*
X1722380Y43076667D01*
X1722380Y42886191D01*
X1674761Y42790953D01*
X1579523Y42695715D01*
X1389047Y42648096D01*
X1055714Y42648096D01*
X865238Y42695715D01*
X770000Y42790953D01*
X722380Y42886191D01*
X1627142Y44314762D02*
X1674761Y44267143D01*
X1722380Y44124286D01*
X1722380Y44029048D01*
X1674761Y43886191D01*
X1579523Y43790953D01*
X1484285Y43743334D01*
X1293809Y43695715D01*
X1150952Y43695715D01*
X960476Y43743334D01*
X865238Y43790953D01*
X770000Y43886191D01*
X722380Y44029048D01*
X722380Y44124286D01*
X770000Y44267143D01*
X817619Y44314762D01*
X1722380Y44743334D02*
X722380Y44743334D01*
X1722380Y45314762D02*
X1150952Y44886191D01*
X722380Y45314762D02*
X1293809Y44743334D01*
X1198571Y45743334D02*
X1198571Y46076667D01*
X1722380Y46219524D02*
X1722380Y45743334D01*
X722380Y45743334D01*
X722380Y46219524D01*
X722380Y46505239D02*
X722380Y47076667D01*
X1722380Y46790953D02*
X722380Y46790953D01*
X33487380Y22754524D02*
X33487380Y22183096D01*
X33487380Y22468810D02*
X32487380Y22468810D01*
X32630238Y22373572D01*
X32725476Y22278334D01*
X32773095Y22183096D01*
X32487380Y23373572D02*
X32487380Y23468810D01*
X32535000Y23564048D01*
X32582619Y23611667D01*
X32677857Y23659286D01*
X32868333Y23706905D01*
X33106428Y23706905D01*
X33296904Y23659286D01*
X33392142Y23611667D01*
X33439761Y23564048D01*
X33487380Y23468810D01*
X33487380Y23373572D01*
X33439761Y23278334D01*
X33392142Y23230715D01*
X33296904Y23183096D01*
X33106428Y23135477D01*
X32868333Y23135477D01*
X32677857Y23183096D01*
X32582619Y23230715D01*
X32535000Y23278334D01*
X32487380Y23373572D01*
X33487380Y24135477D02*
X32487380Y24135477D01*
X33487380Y24706905D02*
X32915952Y24278334D01*
X32487380Y24706905D02*
X33058809Y24135477D01*
X25867380Y22804524D02*
X25867380Y22233096D01*
X25867380Y22518810D02*
X24867380Y22518810D01*
X25010238Y22423572D01*
X25105476Y22328334D01*
X25153095Y22233096D01*
X24867380Y23423572D02*
X24867380Y23518810D01*
X24915000Y23614048D01*
X24962619Y23661667D01*
X25057857Y23709286D01*
X25248333Y23756905D01*
X25486428Y23756905D01*
X25676904Y23709286D01*
X25772142Y23661667D01*
X25819761Y23614048D01*
X25867380Y23518810D01*
X25867380Y23423572D01*
X25819761Y23328334D01*
X25772142Y23280715D01*
X25676904Y23233096D01*
X25486428Y23185477D01*
X25248333Y23185477D01*
X25057857Y23233096D01*
X24962619Y23280715D01*
X24915000Y23328334D01*
X24867380Y23423572D01*
X25867380Y24185477D02*
X24867380Y24185477D01*
X25867380Y24756905D02*
X25295952Y24328334D01*
X24867380Y24756905D02*
X25438809Y24185477D01*
X52302380Y30629286D02*
X51302380Y30629286D01*
X51302380Y31010239D01*
X51350000Y31105477D01*
X51397619Y31153096D01*
X51492857Y31200715D01*
X51635714Y31200715D01*
X51730952Y31153096D01*
X51778571Y31105477D01*
X51826190Y31010239D01*
X51826190Y30629286D01*
X52302380Y31629286D02*
X51302380Y31629286D01*
X52207142Y32676905D02*
X52254761Y32629286D01*
X52302380Y32486429D01*
X52302380Y32391191D01*
X52254761Y32248334D01*
X52159523Y32153096D01*
X52064285Y32105477D01*
X51873809Y32057858D01*
X51730952Y32057858D01*
X51540476Y32105477D01*
X51445238Y32153096D01*
X51350000Y32248334D01*
X51302380Y32391191D01*
X51302380Y32486429D01*
X51350000Y32629286D01*
X51397619Y32676905D01*
X52302380Y33629286D02*
X52302380Y33057858D01*
X52302380Y33343572D02*
X51302380Y33343572D01*
X51445238Y33248334D01*
X51540476Y33153096D01*
X51588095Y33057858D01*
X51302380Y34486429D02*
X51302380Y34295953D01*
X51350000Y34200715D01*
X51397619Y34153096D01*
X51540476Y34057858D01*
X51730952Y34010239D01*
X52111904Y34010239D01*
X52207142Y34057858D01*
X52254761Y34105477D01*
X52302380Y34200715D01*
X52302380Y34391191D01*
X52254761Y34486429D01*
X52207142Y34534048D01*
X52111904Y34581667D01*
X51873809Y34581667D01*
X51778571Y34534048D01*
X51730952Y34486429D01*
X51683333Y34391191D01*
X51683333Y34200715D01*
X51730952Y34105477D01*
X51778571Y34057858D01*
X51873809Y34010239D01*
X51778571Y35343572D02*
X51778571Y35010239D01*
X52302380Y35010239D02*
X51302380Y35010239D01*
X51302380Y35486429D01*
X52302380Y36391191D02*
X52302380Y35819762D01*
X52302380Y36105477D02*
X51302380Y36105477D01*
X51445238Y36010239D01*
X51540476Y35915000D01*
X51588095Y35819762D01*
X51730952Y36962620D02*
X51683333Y36867381D01*
X51635714Y36819762D01*
X51540476Y36772143D01*
X51492857Y36772143D01*
X51397619Y36819762D01*
X51350000Y36867381D01*
X51302380Y36962620D01*
X51302380Y37153096D01*
X51350000Y37248334D01*
X51397619Y37295953D01*
X51492857Y37343572D01*
X51540476Y37343572D01*
X51635714Y37295953D01*
X51683333Y37248334D01*
X51730952Y37153096D01*
X51730952Y36962620D01*
X51778571Y36867381D01*
X51826190Y36819762D01*
X51921428Y36772143D01*
X52111904Y36772143D01*
X52207142Y36819762D01*
X52254761Y36867381D01*
X52302380Y36962620D01*
X52302380Y37153096D01*
X52254761Y37248334D01*
X52207142Y37295953D01*
X52111904Y37343572D01*
X51921428Y37343572D01*
X51826190Y37295953D01*
X51778571Y37248334D01*
X51730952Y37153096D01*
X51397619Y37724524D02*
X51350000Y37772143D01*
X51302380Y37867381D01*
X51302380Y38105477D01*
X51350000Y38200715D01*
X51397619Y38248334D01*
X51492857Y38295953D01*
X51588095Y38295953D01*
X51730952Y38248334D01*
X52302380Y37676905D01*
X52302380Y38295953D01*
X51302380Y38629286D02*
X51302380Y39295953D01*
X52302380Y38867381D01*
X57397380Y2981191D02*
X56397380Y2981191D01*
X56397380Y3362143D01*
X56445000Y3457381D01*
X56492619Y3505000D01*
X56587857Y3552620D01*
X56730714Y3552620D01*
X56825952Y3505000D01*
X56873571Y3457381D01*
X56921190Y3362143D01*
X56921190Y2981191D01*
X57397380Y3981191D02*
X56397380Y3981191D01*
X57302142Y5028810D02*
X57349761Y4981191D01*
X57397380Y4838334D01*
X57397380Y4743096D01*
X57349761Y4600239D01*
X57254523Y4505000D01*
X57159285Y4457381D01*
X56968809Y4409762D01*
X56825952Y4409762D01*
X56635476Y4457381D01*
X56540238Y4505000D01*
X56445000Y4600239D01*
X56397380Y4743096D01*
X56397380Y4838334D01*
X56445000Y4981191D01*
X56492619Y5028810D01*
X57492619Y5219286D02*
X57492619Y5981191D01*
X56397380Y6124048D02*
X57397380Y6362143D01*
X56683095Y6552620D01*
X57397380Y6743096D01*
X56397380Y6981191D01*
X57397380Y7933572D02*
X56921190Y7600239D01*
X57397380Y7362143D02*
X56397380Y7362143D01*
X56397380Y7743096D01*
X56445000Y7838334D01*
X56492619Y7885953D01*
X56587857Y7933572D01*
X56730714Y7933572D01*
X56825952Y7885953D01*
X56873571Y7838334D01*
X56921190Y7743096D01*
X56921190Y7362143D01*
X57397380Y8362143D02*
X56397380Y8362143D01*
X56397380Y8695477D02*
X56397380Y9266905D01*
X57397380Y8981191D02*
X56397380Y8981191D01*
X56873571Y9600239D02*
X56873571Y9933572D01*
X57397380Y10076429D02*
X57397380Y9600239D01*
X56397380Y9600239D01*
X56397380Y10076429D01*
X57397380Y11076429D02*
X56921190Y10743096D01*
X57397380Y10505000D02*
X56397380Y10505000D01*
X56397380Y10885953D01*
X56445000Y10981191D01*
X56492619Y11028810D01*
X56587857Y11076429D01*
X56730714Y11076429D01*
X56825952Y11028810D01*
X56873571Y10981191D01*
X56921190Y10885953D01*
X56921190Y10505000D01*
X31321428Y20416429D02*
X31464285Y20368810D01*
X31511904Y20321191D01*
X31559523Y20225953D01*
X31559523Y20083096D01*
X31511904Y19987858D01*
X31464285Y19940239D01*
X31369047Y19892620D01*
X30988095Y19892620D01*
X30988095Y20892620D01*
X31321428Y20892620D01*
X31416666Y20845000D01*
X31464285Y20797381D01*
X31511904Y20702143D01*
X31511904Y20606905D01*
X31464285Y20511667D01*
X31416666Y20464048D01*
X31321428Y20416429D01*
X30988095Y20416429D01*
X31988095Y19892620D02*
X31988095Y20892620D01*
X32559523Y19892620D02*
X32130952Y20464048D01*
X32559523Y20892620D02*
X31988095Y20321191D01*
X56602380Y33234524D02*
X56602380Y33329762D01*
X56650000Y33425000D01*
X56697619Y33472620D01*
X56792857Y33520239D01*
X56983333Y33567858D01*
X57221428Y33567858D01*
X57411904Y33520239D01*
X57507142Y33472620D01*
X57554761Y33425000D01*
X57602380Y33329762D01*
X57602380Y33234524D01*
X57554761Y33139286D01*
X57507142Y33091667D01*
X57411904Y33044048D01*
X57221428Y32996429D01*
X56983333Y32996429D01*
X56792857Y33044048D01*
X56697619Y33091667D01*
X56650000Y33139286D01*
X56602380Y33234524D01*
X57507142Y33996429D02*
X57554761Y34044048D01*
X57602380Y33996429D01*
X57554761Y33948810D01*
X57507142Y33996429D01*
X57602380Y33996429D01*
X56602380Y34663096D02*
X56602380Y34758334D01*
X56650000Y34853572D01*
X56697619Y34901191D01*
X56792857Y34948810D01*
X56983333Y34996429D01*
X57221428Y34996429D01*
X57411904Y34948810D01*
X57507142Y34901191D01*
X57554761Y34853572D01*
X57602380Y34758334D01*
X57602380Y34663096D01*
X57554761Y34567858D01*
X57507142Y34520239D01*
X57411904Y34472620D01*
X57221428Y34425000D01*
X56983333Y34425000D01*
X56792857Y34472620D01*
X56697619Y34520239D01*
X56650000Y34567858D01*
X56602380Y34663096D01*
X57602380Y35948810D02*
X57602380Y35377381D01*
X57602380Y35663096D02*
X56602380Y35663096D01*
X56745238Y35567858D01*
X56840476Y35472620D01*
X56888095Y35377381D01*
X56935714Y36805953D02*
X57602380Y36805953D01*
X56935714Y36377381D02*
X57459523Y36377381D01*
X57554761Y36425000D01*
X57602380Y36520239D01*
X57602380Y36663096D01*
X57554761Y36758334D01*
X57507142Y36805953D01*
X38529047Y1770000D02*
X38433809Y1817620D01*
X38290952Y1817620D01*
X38148095Y1770000D01*
X38052857Y1674762D01*
X38005238Y1579524D01*
X37957619Y1389048D01*
X37957619Y1246191D01*
X38005238Y1055715D01*
X38052857Y960477D01*
X38148095Y865239D01*
X38290952Y817620D01*
X38386190Y817620D01*
X38529047Y865239D01*
X38576666Y912858D01*
X38576666Y1246191D01*
X38386190Y1246191D01*
X39005238Y817620D02*
X39005238Y1817620D01*
X39576666Y817620D01*
X39576666Y1817620D01*
X40052857Y817620D02*
X40052857Y1817620D01*
X40290952Y1817620D01*
X40433809Y1770000D01*
X40529047Y1674762D01*
X40576666Y1579524D01*
X40624285Y1389048D01*
X40624285Y1246191D01*
X40576666Y1055715D01*
X40529047Y960477D01*
X40433809Y865239D01*
X40290952Y817620D01*
X40052857Y817620D01*
X41767142Y1865239D02*
X40910000Y579524D01*
X42576666Y817620D02*
X42100476Y817620D01*
X42100476Y1817620D01*
X43243333Y1341429D02*
X42910000Y1341429D01*
X42910000Y817620D02*
X42910000Y1817620D01*
X43386190Y1817620D01*
X44481428Y1865239D02*
X43624285Y579524D01*
X45386190Y817620D02*
X45052857Y1293810D01*
X44814761Y817620D02*
X44814761Y1817620D01*
X45195714Y1817620D01*
X45290952Y1770000D01*
X45338571Y1722381D01*
X45386190Y1627143D01*
X45386190Y1484286D01*
X45338571Y1389048D01*
X45290952Y1341429D01*
X45195714Y1293810D01*
X44814761Y1293810D01*
X45814761Y817620D02*
X45814761Y1817620D01*
X2524761Y23090715D02*
X2572380Y23233572D01*
X2572380Y23471667D01*
X2524761Y23566905D01*
X2477142Y23614524D01*
X2381904Y23662143D01*
X2286666Y23662143D01*
X2191428Y23614524D01*
X2143809Y23566905D01*
X2096190Y23471667D01*
X2048571Y23281191D01*
X2000952Y23185953D01*
X1953333Y23138334D01*
X1858095Y23090715D01*
X1762857Y23090715D01*
X1667619Y23138334D01*
X1620000Y23185953D01*
X1572380Y23281191D01*
X1572380Y23519286D01*
X1620000Y23662143D01*
X1572380Y23947858D02*
X1572380Y24519286D01*
X2572380Y24233572D02*
X1572380Y24233572D01*
X2286666Y24805000D02*
X2286666Y25281191D01*
X2572380Y24709762D02*
X1572380Y25043096D01*
X2572380Y25376429D01*
X1572380Y25566905D02*
X1572380Y26138334D01*
X2572380Y25852620D02*
X1572380Y25852620D01*
X1572380Y26471667D02*
X2381904Y26471667D01*
X2477142Y26519286D01*
X2524761Y26566905D01*
X2572380Y26662143D01*
X2572380Y26852620D01*
X2524761Y26947858D01*
X2477142Y26995477D01*
X2381904Y27043096D01*
X1572380Y27043096D01*
X2524761Y27471667D02*
X2572380Y27614524D01*
X2572380Y27852620D01*
X2524761Y27947858D01*
X2477142Y27995477D01*
X2381904Y28043096D01*
X2286666Y28043096D01*
X2191428Y27995477D01*
X2143809Y27947858D01*
X2096190Y27852620D01*
X2048571Y27662143D01*
X2000952Y27566905D01*
X1953333Y27519286D01*
X1858095Y27471667D01*
X1762857Y27471667D01*
X1667619Y27519286D01*
X1620000Y27566905D01*
X1572380Y27662143D01*
X1572380Y27900239D01*
X1620000Y28043096D01*
X2667619Y28233572D02*
X2667619Y28995477D01*
X2572380Y29709762D02*
X2572380Y29233572D01*
X1572380Y29233572D01*
X2048571Y30043096D02*
X2048571Y30376429D01*
X2572380Y30519286D02*
X2572380Y30043096D01*
X1572380Y30043096D01*
X1572380Y30519286D01*
X2572380Y30947858D02*
X1572380Y30947858D01*
X1572380Y31185953D01*
X1620000Y31328810D01*
X1715238Y31424048D01*
X1810476Y31471667D01*
X2000952Y31519286D01*
X2143809Y31519286D01*
X2334285Y31471667D01*
X2429523Y31424048D01*
X2524761Y31328810D01*
X2572380Y31185953D01*
X2572380Y30947858D01*
X50871428Y19892620D02*
X50538095Y20368810D01*
X50300000Y19892620D02*
X50300000Y20892620D01*
X50680952Y20892620D01*
X50776190Y20845000D01*
X50823809Y20797381D01*
X50871428Y20702143D01*
X50871428Y20559286D01*
X50823809Y20464048D01*
X50776190Y20416429D01*
X50680952Y20368810D01*
X50300000Y20368810D01*
X51300000Y19892620D02*
X51300000Y20892620D01*
X41790952Y19892620D02*
X41314761Y19892620D01*
X41314761Y20892620D01*
X42457619Y20416429D02*
X42124285Y20416429D01*
X42124285Y19892620D02*
X42124285Y20892620D01*
X42600476Y20892620D01*
X53172380Y22709524D02*
X53172380Y22138096D01*
X53172380Y22423810D02*
X52172380Y22423810D01*
X52315238Y22328572D01*
X52410476Y22233334D01*
X52458095Y22138096D01*
X52172380Y23328572D02*
X52172380Y23423810D01*
X52220000Y23519048D01*
X52267619Y23566667D01*
X52362857Y23614286D01*
X52553333Y23661905D01*
X52791428Y23661905D01*
X52981904Y23614286D01*
X53077142Y23566667D01*
X53124761Y23519048D01*
X53172380Y23423810D01*
X53172380Y23328572D01*
X53124761Y23233334D01*
X53077142Y23185715D01*
X52981904Y23138096D01*
X52791428Y23090477D01*
X52553333Y23090477D01*
X52362857Y23138096D01*
X52267619Y23185715D01*
X52220000Y23233334D01*
X52172380Y23328572D01*
X53172380Y24090477D02*
X52172380Y24090477D01*
X53172380Y24661905D02*
X52600952Y24233334D01*
X52172380Y24661905D02*
X52743809Y24090477D01*
X66206971Y28122598D02*
X66206971Y29122645D01*
X66587941Y29122645D01*
X66683184Y29075024D01*
X66730805Y29027403D01*
X66778427Y28932160D01*
X66778427Y28789296D01*
X66730805Y28694054D01*
X66683184Y28646432D01*
X66587941Y28598811D01*
X66206971Y28598811D01*
X67492746Y29122645D02*
X67492746Y28408326D01*
X67445125Y28265462D01*
X67349882Y28170220D01*
X67207018Y28122598D01*
X67111776Y28122598D01*
X67968959Y28503569D02*
X68730899Y28503569D01*
X69397597Y29122645D02*
X69492840Y29122645D01*
X69588082Y29075024D01*
X69635704Y29027403D01*
X69683325Y28932160D01*
X69730946Y28741675D01*
X69730946Y28503569D01*
X69683325Y28313083D01*
X69635704Y28217841D01*
X69588082Y28170220D01*
X69492840Y28122598D01*
X69397597Y28122598D01*
X69302355Y28170220D01*
X69254733Y28217841D01*
X69207112Y28313083D01*
X69159491Y28503569D01*
X69159491Y28741675D01*
X69207112Y28932160D01*
X69254733Y29027403D01*
X69302355Y29075024D01*
X69397597Y29122645D01*
X70350023Y29122645D02*
X70445266Y29122645D01*
X70540508Y29075024D01*
X70588129Y29027403D01*
X70635751Y28932160D01*
X70683372Y28741675D01*
X70683372Y28503569D01*
X70635751Y28313083D01*
X70588129Y28217841D01*
X70540508Y28170220D01*
X70445266Y28122598D01*
X70350023Y28122598D01*
X70254780Y28170220D01*
X70207159Y28217841D01*
X70159538Y28313083D01*
X70111917Y28503569D01*
X70111917Y28741675D01*
X70159538Y28932160D01*
X70207159Y29027403D01*
X70254780Y29075024D01*
X70350023Y29122645D01*
X71064342Y29027403D02*
X71111964Y29075024D01*
X71207206Y29122645D01*
X71445313Y29122645D01*
X71540555Y29075024D01*
X71588176Y29027403D01*
X71635798Y28932160D01*
X71635798Y28836918D01*
X71588176Y28694054D01*
X71016721Y28122598D01*
X71635798Y28122598D01*
X72016768Y28408326D02*
X72492981Y28408326D01*
X71921525Y28122598D02*
X72254874Y29122645D01*
X72588223Y28122598D01*
X72921572Y28122598D02*
X72921572Y29122645D01*
X72921572Y28646432D02*
X73493028Y28646432D01*
X73493028Y28122598D02*
X73493028Y29122645D01*
X21796428Y20416429D02*
X21463095Y20416429D01*
X21463095Y19892620D02*
X21463095Y20892620D01*
X21939285Y20892620D01*
X22225000Y20892620D02*
X22463095Y19892620D01*
X22653571Y20606905D01*
X22844047Y19892620D01*
X23082142Y20892620D01*
D12*
X55245000Y40940000D02*
X55245000Y40320000D01*
X56165000Y41860000D02*
G75*
G03*
X56165000Y41860000I-920000J0D01*
G01*
X15277500Y2253500D02*
X30637500Y2253500D01*
X15277500Y13373500D02*
X15277500Y2253500D01*
X15277500Y2813500D02*
X30637500Y2813500D01*
X21810500Y6730500D02*
X21729500Y6649500D01*
X15037500Y2013500D02*
X15537500Y2013500D01*
X15037500Y2753500D02*
X15037500Y2013500D01*
X29266500Y9577500D02*
X28875500Y9187500D01*
X26890500Y6730500D02*
X26809500Y6649500D01*
X15277500Y13373500D02*
X30637500Y13373500D01*
X21601500Y6992500D02*
X21494500Y6885500D01*
X24421500Y9342500D02*
X24071500Y8992500D01*
X15277500Y11513500D02*
X30637500Y11513500D01*
X19106500Y9577500D02*
X18890500Y9362500D01*
X15277500Y5313500D02*
X30637500Y5313500D01*
X24186500Y9577500D02*
X23795500Y9187500D01*
X30637500Y13373500D02*
X30637500Y2253500D01*
X26681500Y6992500D02*
X26574500Y6885500D01*
X29501500Y9342500D02*
X29151500Y8992500D01*
X19377500Y9328500D02*
G75*
G03*
X16377183Y9328109I-1500000J-1214998D01*
G01*
X24887500Y8113500D02*
G75*
G03*
X24887500Y8113500I-1930000J0D01*
G01*
X16356500Y9302500D02*
G75*
G03*
X16355855Y6925325I1521000J-1189000D01*
G01*
X17877500Y6183500D02*
G75*
G03*
X18473903Y6277961I-5J1930033D01*
G01*
X29967500Y8113500D02*
G75*
G03*
X29967500Y8113500I-1930000J0D01*
G01*
X19398500Y6924500D02*
G75*
G03*
X19399145Y9301675I-1521000J1189000D01*
G01*
X17280500Y6277500D02*
G75*
G03*
X17910769Y6183164I596995J1835976D01*
G01*
X11095000Y28575000D02*
X10475000Y28575000D01*
X12935000Y28575000D02*
G75*
G03*
X12935000Y28575000I-920000J0D01*
G01*
X43180000Y23740000D02*
X43180000Y23120000D01*
X44100000Y24660000D02*
G75*
G03*
X44100000Y24660000I-920000J0D01*
G01*
X1930000Y48930000D02*
X1930000Y33570000D01*
X10560000Y40340000D02*
X10970000Y40340000D01*
X1930000Y41250000D02*
X10560000Y41250000D01*
X1930000Y48691905D02*
X10560000Y48691905D01*
X10560000Y47960000D02*
X10910000Y47960000D01*
X1930000Y47747145D02*
X10560000Y47747145D01*
X10560000Y35260000D02*
X10970000Y35260000D01*
X1930000Y48573810D02*
X10560000Y48573810D01*
X1930000Y47156670D02*
X10560000Y47156670D01*
X10560000Y47240000D02*
X10910000Y47240000D01*
X1930000Y47983335D02*
X10560000Y47983335D01*
X1930000Y36170000D02*
X10560000Y36170000D01*
X1930000Y47510955D02*
X10560000Y47510955D01*
X1930000Y47274765D02*
X10560000Y47274765D01*
X10560000Y34540000D02*
X10970000Y34540000D01*
X1930000Y48101430D02*
X10560000Y48101430D01*
X10560000Y37800000D02*
X10970000Y37800000D01*
X1930000Y48219525D02*
X10560000Y48219525D01*
X12020000Y48930000D02*
X13130000Y48930000D01*
X1930000Y47392860D02*
X10560000Y47392860D01*
X1930000Y46920480D02*
X10560000Y46920480D01*
X1930000Y48930000D02*
X10560000Y48930000D01*
X13130000Y48930000D02*
X13130000Y47600000D01*
X1930000Y47038575D02*
X10560000Y47038575D01*
X1930000Y48455715D02*
X10560000Y48455715D01*
X1930000Y47865240D02*
X10560000Y47865240D01*
X1930000Y48810000D02*
X10560000Y48810000D01*
X10560000Y44700000D02*
X10970000Y44700000D01*
X1930000Y47629050D02*
X10560000Y47629050D01*
X10560000Y48930000D02*
X10560000Y33570000D01*
X1930000Y46566195D02*
X10560000Y46566195D01*
X1930000Y38710000D02*
X10560000Y38710000D01*
X1930000Y46684290D02*
X10560000Y46684290D01*
X1930000Y46802385D02*
X10560000Y46802385D01*
X10560000Y45420000D02*
X10970000Y45420000D01*
X1930000Y48337620D02*
X10560000Y48337620D01*
X10560000Y42880000D02*
X10970000Y42880000D01*
X1930000Y46448100D02*
X10560000Y46448100D01*
X10560000Y37080000D02*
X10970000Y37080000D01*
X10560000Y39620000D02*
X10970000Y39620000D01*
X1930000Y43790000D02*
X10560000Y43790000D01*
X1930000Y46330000D02*
X10560000Y46330000D01*
X10560000Y42160000D02*
X10970000Y42160000D01*
X1930000Y33570000D02*
X10560000Y33570000D01*
X31115000Y23795000D02*
X31115000Y23175000D01*
X32035000Y24715000D02*
G75*
G03*
X32035000Y24715000I-920000J0D01*
G01*
X23495000Y23845000D02*
X23495000Y23225000D01*
X24415000Y24765000D02*
G75*
G03*
X24415000Y24765000I-920000J0D01*
G01*
X27870000Y37565000D02*
X27870000Y32265000D01*
X50910000Y40055000D02*
X27810000Y40055000D01*
X27810000Y29775000D02*
X50910000Y29775000D01*
X27870000Y32265000D02*
X50850000Y32265000D01*
X50850000Y37565000D02*
X27870000Y37565000D01*
X50850000Y35915000D02*
X50850000Y37565000D01*
X50910000Y29775000D02*
X50910000Y40055000D01*
X50850000Y32265000D02*
X50850000Y33915000D01*
X27810000Y40055000D02*
X27810000Y29775000D01*
X50850000Y35915000D02*
G75*
G03*
X50850000Y33915000I0J-1000000D01*
G01*
X60394520Y1295000D02*
X60394520Y9925000D01*
X67695000Y9925000D02*
X67695000Y10335000D01*
X63525000Y1295000D02*
X63525000Y9925000D01*
X60276425Y1295000D02*
X60276425Y9925000D01*
X60985000Y1295000D02*
X60985000Y9925000D01*
X58623095Y1295000D02*
X58623095Y9925000D01*
X73745000Y1295000D02*
X73745000Y9925000D01*
X59922140Y1295000D02*
X59922140Y9925000D01*
X59685950Y1295000D02*
X59685950Y9925000D01*
X58385000Y9925000D02*
X73745000Y9925000D01*
X66065000Y1295000D02*
X66065000Y9925000D01*
X60040235Y1295000D02*
X60040235Y9925000D01*
X59449760Y1295000D02*
X59449760Y9925000D01*
X58977380Y1295000D02*
X58977380Y9925000D01*
X72775000Y9925000D02*
X72775000Y10335000D01*
X58385000Y11385000D02*
X58385000Y12495000D01*
X70235000Y9925000D02*
X70235000Y10335000D01*
X71145000Y1295000D02*
X71145000Y9925000D01*
X65155000Y9925000D02*
X65155000Y10335000D01*
X68605000Y1295000D02*
X68605000Y9925000D01*
X60866900Y1295000D02*
X60866900Y9925000D01*
X60512615Y1295000D02*
X60512615Y9925000D01*
X58859285Y1295000D02*
X58859285Y9925000D01*
X59331665Y1295000D02*
X59331665Y9925000D01*
X60748805Y1295000D02*
X60748805Y9925000D01*
X59095475Y1295000D02*
X59095475Y9925000D01*
X58385000Y1295000D02*
X73745000Y1295000D01*
X58385000Y12495000D02*
X59715000Y12495000D01*
X58741190Y1295000D02*
X58741190Y9925000D01*
X59804045Y1295000D02*
X59804045Y9925000D01*
X58505000Y1295000D02*
X58505000Y9925000D01*
X61895000Y9925000D02*
X61895000Y10335000D01*
X60158330Y1295000D02*
X60158330Y9925000D01*
X59355000Y9925000D02*
X59355000Y10275000D01*
X66975000Y9925000D02*
X66975000Y10335000D01*
X72055000Y9925000D02*
X72055000Y10335000D01*
X60630710Y1295000D02*
X60630710Y9925000D01*
X59567855Y1295000D02*
X59567855Y9925000D01*
X64435000Y9925000D02*
X64435000Y10335000D01*
X62615000Y9925000D02*
X62615000Y10335000D01*
X69515000Y9925000D02*
X69515000Y10335000D01*
X60075000Y9925000D02*
X60075000Y10275000D01*
X58385000Y1295000D02*
X58385000Y9925000D01*
X59213570Y1295000D02*
X59213570Y9925000D01*
X29950000Y14935000D02*
X33550000Y14935000D01*
X29425816Y15662205D02*
G75*
G03*
X29950000Y14935000I2324184J1122795D01*
G01*
X31750000Y19385000D02*
G75*
G03*
X29393600Y17883807I0J-2600000D01*
G01*
X34106400Y17883807D02*
G75*
G03*
X31750000Y19385000I-2356400J-1098807D01*
G01*
X33550000Y14935000D02*
G75*
G03*
X34074184Y15662205I-1800000J1850000D01*
G01*
X54325000Y34296000D02*
X54325000Y35554000D01*
X56165000Y34296000D02*
X56165000Y35554000D01*
X34620000Y2013500D02*
X35120000Y2013500D01*
X49084000Y9342500D02*
X48734000Y8992500D01*
X46264000Y6992500D02*
X46157000Y6885500D01*
X34860000Y2813500D02*
X50220000Y2813500D01*
X34860000Y2253500D02*
X50220000Y2253500D01*
X46473000Y6730500D02*
X46392000Y6649500D01*
X50220000Y13373500D02*
X50220000Y2253500D01*
X34860000Y11513500D02*
X50220000Y11513500D01*
X34860000Y5313500D02*
X50220000Y5313500D01*
X41184000Y6992500D02*
X41077000Y6885500D01*
X48849000Y9577500D02*
X48458000Y9187500D01*
X43769000Y9577500D02*
X43378000Y9187500D01*
X34620000Y2753500D02*
X34620000Y2013500D01*
X34860000Y13373500D02*
X34860000Y2253500D01*
X34860000Y13373500D02*
X50220000Y13373500D01*
X38689000Y9577500D02*
X38473000Y9362500D01*
X44004000Y9342500D02*
X43654000Y8992500D01*
X41393000Y6730500D02*
X41312000Y6649500D01*
X44470000Y8113500D02*
G75*
G03*
X44470000Y8113500I-1930000J0D01*
G01*
X37460000Y6183500D02*
G75*
G03*
X38056403Y6277961I-5J1930033D01*
G01*
X36863000Y6277500D02*
G75*
G03*
X37493269Y6183164I596995J1835976D01*
G01*
X35939000Y9302500D02*
G75*
G03*
X35938355Y6925325I1521000J-1189000D01*
G01*
X38960000Y9328500D02*
G75*
G03*
X35959683Y9328109I-1500000J-1214998D01*
G01*
X49550000Y8113500D02*
G75*
G03*
X49550000Y8113500I-1930000J0D01*
G01*
X38981000Y6924500D02*
G75*
G03*
X38981645Y9301675I-1521000J1189000D01*
G01*
X3844000Y25745000D02*
X4000000Y25745000D01*
X6160000Y25745000D02*
X6316000Y25745000D01*
X4001392Y28977335D02*
G75*
G03*
X3844484Y25745000I1078608J-1672335D01*
G01*
X6315516Y25745000D02*
G75*
G03*
X6158608Y28977335I-1235516J1560000D01*
G01*
X4000163Y28346130D02*
G75*
G03*
X4000000Y26264039I1079837J-1041130D01*
G01*
X6160000Y26264039D02*
G75*
G03*
X6159837Y28346130I-1080000J1040961D01*
G01*
X49000000Y14935000D02*
X52600000Y14935000D01*
X50800000Y19385000D02*
G75*
G03*
X48443600Y17883807I0J-2600000D01*
G01*
X53156400Y17883807D02*
G75*
G03*
X50800000Y19385000I-2356400J-1098807D01*
G01*
X48475816Y15662205D02*
G75*
G03*
X49000000Y14935000I2324184J1122795D01*
G01*
X52600000Y14935000D02*
G75*
G03*
X53124184Y15662205I-1800000J1850000D01*
G01*
X40110000Y14935000D02*
X43710000Y14935000D01*
X41910000Y19385000D02*
G75*
G03*
X39553600Y17883807I0J-2600000D01*
G01*
X43710000Y14935000D02*
G75*
G03*
X44234184Y15662205I-1800000J1850000D01*
G01*
X39585816Y15662205D02*
G75*
G03*
X40110000Y14935000I2324184J1122795D01*
G01*
X44266400Y17883807D02*
G75*
G03*
X41910000Y19385000I-2356400J-1098807D01*
G01*
X50800000Y23750000D02*
X50800000Y23130000D01*
X51720000Y24670000D02*
G75*
G03*
X51720000Y24670000I-920000J0D01*
G01*
D13*
X66512500Y29750000D02*
X66512500Y31600000D01*
X66512500Y38750000D02*
X67662500Y38750000D01*
X66512500Y36800000D02*
X66512500Y38750000D01*
X72762500Y38750000D02*
X80912500Y38750000D01*
X80912500Y38750000D02*
X80912500Y29750000D01*
X80912500Y29750000D02*
X66512500Y29750000D01*
D14*
X65412500Y34250000D02*
G75*
G03*
X65412500Y34250000I-200000J0D01*
G01*
D12*
X20425000Y14935000D02*
X24025000Y14935000D01*
X24025000Y14935000D02*
G75*
G03*
X24549184Y15662205I-1800000J1850000D01*
G01*
X19900816Y15662205D02*
G75*
G03*
X20425000Y14935000I2324184J1122795D01*
G01*
X22225000Y19385000D02*
G75*
G03*
X19868600Y17883807I0J-2600000D01*
G01*
X24581400Y17883807D02*
G75*
G03*
X22225000Y19385000I-2356400J-1098807D01*
G01*
M02*
