G04 #@! TF.GenerationSoftware,KiCad,Pcbnew,(6.0.11-0)*
G04 #@! TF.CreationDate,2023-08-06T14:05:06+09:00*
G04 #@! TF.ProjectId,RadioCtrl-Override,52616469-6f43-4747-926c-2d4f76657272,rev?*
G04 #@! TF.SameCoordinates,PX7bfa480PY7bfa480*
G04 #@! TF.FileFunction,Legend,Bot*
G04 #@! TF.FilePolarity,Positive*
%FSLAX46Y46*%
G04 Gerber Fmt 4.6, Leading zero omitted, Abs format (unit mm)*
G04 Created by KiCad (PCBNEW (6.0.11-0)) date 2023-08-06 14:05:06*
%MOMM*%
%LPD*%
G01*
G04 APERTURE LIST*
%ADD10C,0.125000*%
%ADD11C,0.150000*%
G04 APERTURE END LIST*
D10*
X60732857Y8437620D02*
X60732857Y9437620D01*
X60532857Y8723334D01*
X60332857Y9437620D01*
X60332857Y8437620D01*
X59704285Y8532858D02*
X59732857Y8485239D01*
X59818571Y8437620D01*
X59875714Y8437620D01*
X59961428Y8485239D01*
X60018571Y8580477D01*
X60047142Y8675715D01*
X60075714Y8866191D01*
X60075714Y9009048D01*
X60047142Y9199524D01*
X60018571Y9294762D01*
X59961428Y9390000D01*
X59875714Y9437620D01*
X59818571Y9437620D01*
X59732857Y9390000D01*
X59704285Y9342381D01*
X59161428Y8437620D02*
X59447142Y8437620D01*
X59447142Y9437620D01*
X58618571Y8437620D02*
X58818571Y8913810D01*
X58961428Y8437620D02*
X58961428Y9437620D01*
X58732857Y9437620D01*
X58675714Y9390000D01*
X58647142Y9342381D01*
X58618571Y9247143D01*
X58618571Y9104286D01*
X58647142Y9009048D01*
X58675714Y8961429D01*
X58732857Y8913810D01*
X58961428Y8913810D01*
D11*
X26225000Y1341429D02*
X26082142Y1293810D01*
X26034523Y1246191D01*
X25986904Y1150953D01*
X25986904Y1008096D01*
X26034523Y912858D01*
X26082142Y865239D01*
X26177380Y817620D01*
X26558333Y817620D01*
X26558333Y1817620D01*
X26225000Y1817620D01*
X26129761Y1770000D01*
X26082142Y1722381D01*
X26034523Y1627143D01*
X26034523Y1531905D01*
X26082142Y1436667D01*
X26129761Y1389048D01*
X26225000Y1341429D01*
X26558333Y1341429D01*
X25558333Y817620D02*
X25558333Y1817620D01*
X24986904Y817620D02*
X25415476Y1389048D01*
X24986904Y1817620D02*
X25558333Y1246191D01*
X23844047Y1865239D02*
X24701190Y579524D01*
X23177380Y1341429D02*
X23510714Y1341429D01*
X23510714Y817620D02*
X23510714Y1817620D01*
X23034523Y1817620D01*
X22748809Y1817620D02*
X22510714Y817620D01*
X22320238Y1531905D01*
X22129761Y817620D01*
X21891666Y1817620D01*
X20796428Y1865239D02*
X21653571Y579524D01*
X19939285Y1770000D02*
X20034523Y1817620D01*
X20177380Y1817620D01*
X20320238Y1770000D01*
X20415476Y1674762D01*
X20463095Y1579524D01*
X20510714Y1389048D01*
X20510714Y1246191D01*
X20463095Y1055715D01*
X20415476Y960477D01*
X20320238Y865239D01*
X20177380Y817620D01*
X20082142Y817620D01*
X19939285Y865239D01*
X19891666Y912858D01*
X19891666Y1246191D01*
X20082142Y1246191D01*
X19463095Y817620D02*
X19463095Y1817620D01*
X18891666Y817620D01*
X18891666Y1817620D01*
X18415476Y817620D02*
X18415476Y1817620D01*
X18177380Y1817620D01*
X18034523Y1770000D01*
X17939285Y1674762D01*
X17891666Y1579524D01*
X17844047Y1389048D01*
X17844047Y1246191D01*
X17891666Y1055715D01*
X17939285Y960477D01*
X18034523Y865239D01*
X18177380Y817620D01*
X18415476Y817620D01*
X40131904Y41775000D02*
X40227142Y41822620D01*
X40370000Y41822620D01*
X40512857Y41775000D01*
X40608095Y41679762D01*
X40655714Y41584524D01*
X40703333Y41394048D01*
X40703333Y41251191D01*
X40655714Y41060715D01*
X40608095Y40965477D01*
X40512857Y40870239D01*
X40370000Y40822620D01*
X40274761Y40822620D01*
X40131904Y40870239D01*
X40084285Y40917858D01*
X40084285Y41251191D01*
X40274761Y41251191D01*
X39655714Y40822620D02*
X39655714Y41822620D01*
X39084285Y40822620D01*
X39084285Y41822620D01*
X38608095Y40822620D02*
X38608095Y41822620D01*
X38370000Y41822620D01*
X38227142Y41775000D01*
X38131904Y41679762D01*
X38084285Y41584524D01*
X38036666Y41394048D01*
X38036666Y41251191D01*
X38084285Y41060715D01*
X38131904Y40965477D01*
X38227142Y40870239D01*
X38370000Y40822620D01*
X38608095Y40822620D01*
D10*
X13470000Y43002143D02*
X13422380Y43059286D01*
X13422380Y43145000D01*
X13470000Y43230715D01*
X13565238Y43287858D01*
X13660476Y43316429D01*
X13850952Y43345000D01*
X13993809Y43345000D01*
X14184285Y43316429D01*
X14279523Y43287858D01*
X14374761Y43230715D01*
X14422380Y43145000D01*
X14422380Y43087858D01*
X14374761Y43002143D01*
X14327142Y42973572D01*
X13993809Y42973572D01*
X13993809Y43087858D01*
X14422380Y42716429D02*
X13422380Y42716429D01*
X14422380Y42373572D01*
X13422380Y42373572D01*
X14422380Y42087858D02*
X13422380Y42087858D01*
X13422380Y41945000D01*
X13470000Y41859286D01*
X13565238Y41802143D01*
X13660476Y41773572D01*
X13850952Y41745000D01*
X13993809Y41745000D01*
X14184285Y41773572D01*
X14279523Y41802143D01*
X14374761Y41859286D01*
X14422380Y41945000D01*
X14422380Y42087858D01*
D11*
X73786904Y30980000D02*
X73882142Y31027620D01*
X74025000Y31027620D01*
X74167857Y30980000D01*
X74263095Y30884762D01*
X74310714Y30789524D01*
X74358333Y30599048D01*
X74358333Y30456191D01*
X74310714Y30265715D01*
X74263095Y30170477D01*
X74167857Y30075239D01*
X74025000Y30027620D01*
X73929761Y30027620D01*
X73786904Y30075239D01*
X73739285Y30122858D01*
X73739285Y30456191D01*
X73929761Y30456191D01*
X73310714Y30027620D02*
X73310714Y31027620D01*
X72739285Y30027620D01*
X72739285Y31027620D01*
X72263095Y30027620D02*
X72263095Y31027620D01*
X72025000Y31027620D01*
X71882142Y30980000D01*
X71786904Y30884762D01*
X71739285Y30789524D01*
X71691666Y30599048D01*
X71691666Y30456191D01*
X71739285Y30265715D01*
X71786904Y30170477D01*
X71882142Y30075239D01*
X72025000Y30027620D01*
X72263095Y30027620D01*
D10*
X13422380Y45885000D02*
X14422380Y45685000D01*
X13422380Y45485000D01*
X14327142Y44942143D02*
X14374761Y44970715D01*
X14422380Y45056429D01*
X14422380Y45113572D01*
X14374761Y45199286D01*
X14279523Y45256429D01*
X14184285Y45285000D01*
X13993809Y45313572D01*
X13850952Y45313572D01*
X13660476Y45285000D01*
X13565238Y45256429D01*
X13470000Y45199286D01*
X13422380Y45113572D01*
X13422380Y45056429D01*
X13470000Y44970715D01*
X13517619Y44942143D01*
X14327142Y44342143D02*
X14374761Y44370715D01*
X14422380Y44456429D01*
X14422380Y44513572D01*
X14374761Y44599286D01*
X14279523Y44656429D01*
X14184285Y44685000D01*
X13993809Y44713572D01*
X13850952Y44713572D01*
X13660476Y44685000D01*
X13565238Y44656429D01*
X13470000Y44599286D01*
X13422380Y44513572D01*
X13422380Y44456429D01*
X13470000Y44370715D01*
X13517619Y44342143D01*
X63030000Y9437620D02*
X62830000Y8437620D01*
X62630000Y9437620D01*
X62087142Y8532858D02*
X62115714Y8485239D01*
X62201428Y8437620D01*
X62258571Y8437620D01*
X62344285Y8485239D01*
X62401428Y8580477D01*
X62430000Y8675715D01*
X62458571Y8866191D01*
X62458571Y9009048D01*
X62430000Y9199524D01*
X62401428Y9294762D01*
X62344285Y9390000D01*
X62258571Y9437620D01*
X62201428Y9437620D01*
X62115714Y9390000D01*
X62087142Y9342381D01*
X61487142Y8532858D02*
X61515714Y8485239D01*
X61601428Y8437620D01*
X61658571Y8437620D01*
X61744285Y8485239D01*
X61801428Y8580477D01*
X61830000Y8675715D01*
X61858571Y8866191D01*
X61858571Y9009048D01*
X61830000Y9199524D01*
X61801428Y9294762D01*
X61744285Y9390000D01*
X61658571Y9437620D01*
X61601428Y9437620D01*
X61515714Y9390000D01*
X61487142Y9342381D01*
X65227142Y9390000D02*
X65284285Y9437620D01*
X65370000Y9437620D01*
X65455714Y9390000D01*
X65512857Y9294762D01*
X65541428Y9199524D01*
X65570000Y9009048D01*
X65570000Y8866191D01*
X65541428Y8675715D01*
X65512857Y8580477D01*
X65455714Y8485239D01*
X65370000Y8437620D01*
X65312857Y8437620D01*
X65227142Y8485239D01*
X65198571Y8532858D01*
X65198571Y8866191D01*
X65312857Y8866191D01*
X64941428Y8437620D02*
X64941428Y9437620D01*
X64598571Y8437620D01*
X64598571Y9437620D01*
X64312857Y8437620D02*
X64312857Y9437620D01*
X64170000Y9437620D01*
X64084285Y9390000D01*
X64027142Y9294762D01*
X63998571Y9199524D01*
X63970000Y9009048D01*
X63970000Y8866191D01*
X63998571Y8675715D01*
X64027142Y8580477D01*
X64084285Y8485239D01*
X64170000Y8437620D01*
X64312857Y8437620D01*
D11*
X40703333Y29122620D02*
X40370000Y28122620D01*
X40036666Y29122620D01*
X39131904Y28217858D02*
X39179523Y28170239D01*
X39322380Y28122620D01*
X39417619Y28122620D01*
X39560476Y28170239D01*
X39655714Y28265477D01*
X39703333Y28360715D01*
X39750952Y28551191D01*
X39750952Y28694048D01*
X39703333Y28884524D01*
X39655714Y28979762D01*
X39560476Y29075000D01*
X39417619Y29122620D01*
X39322380Y29122620D01*
X39179523Y29075000D01*
X39131904Y29027381D01*
X38131904Y28217858D02*
X38179523Y28170239D01*
X38322380Y28122620D01*
X38417619Y28122620D01*
X38560476Y28170239D01*
X38655714Y28265477D01*
X38703333Y28360715D01*
X38750952Y28551191D01*
X38750952Y28694048D01*
X38703333Y28884524D01*
X38655714Y28979762D01*
X38560476Y29075000D01*
X38417619Y29122620D01*
X38322380Y29122620D01*
X38179523Y29075000D01*
X38131904Y29027381D01*
X64222380Y35623334D02*
X65222380Y35290000D01*
X64222380Y34956667D01*
X65127142Y34051905D02*
X65174761Y34099524D01*
X65222380Y34242381D01*
X65222380Y34337620D01*
X65174761Y34480477D01*
X65079523Y34575715D01*
X64984285Y34623334D01*
X64793809Y34670953D01*
X64650952Y34670953D01*
X64460476Y34623334D01*
X64365238Y34575715D01*
X64270000Y34480477D01*
X64222380Y34337620D01*
X64222380Y34242381D01*
X64270000Y34099524D01*
X64317619Y34051905D01*
X65127142Y33051905D02*
X65174761Y33099524D01*
X65222380Y33242381D01*
X65222380Y33337620D01*
X65174761Y33480477D01*
X65079523Y33575715D01*
X64984285Y33623334D01*
X64793809Y33670953D01*
X64650952Y33670953D01*
X64460476Y33623334D01*
X64365238Y33575715D01*
X64270000Y33480477D01*
X64222380Y33337620D01*
X64222380Y33242381D01*
X64270000Y33099524D01*
X64317619Y33051905D01*
D10*
X70207142Y8532858D02*
X70235714Y8485239D01*
X70321428Y8437620D01*
X70378571Y8437620D01*
X70464285Y8485239D01*
X70521428Y8580477D01*
X70550000Y8675715D01*
X70578571Y8866191D01*
X70578571Y9009048D01*
X70550000Y9199524D01*
X70521428Y9294762D01*
X70464285Y9390000D01*
X70378571Y9437620D01*
X70321428Y9437620D01*
X70235714Y9390000D01*
X70207142Y9342381D01*
X69664285Y8437620D02*
X69950000Y8437620D01*
X69950000Y9437620D01*
X69464285Y8437620D02*
X69464285Y9437620D01*
X69121428Y8437620D02*
X69378571Y9009048D01*
X69121428Y9437620D02*
X69464285Y8866191D01*
X67952857Y8437620D02*
X67952857Y9437620D01*
X67810000Y9437620D01*
X67724285Y9390000D01*
X67667142Y9294762D01*
X67638571Y9199524D01*
X67610000Y9009048D01*
X67610000Y8866191D01*
X67638571Y8675715D01*
X67667142Y8580477D01*
X67724285Y8485239D01*
X67810000Y8437620D01*
X67952857Y8437620D01*
X67381428Y8723334D02*
X67095714Y8723334D01*
X67438571Y8437620D02*
X67238571Y9437620D01*
X67038571Y8437620D01*
X66924285Y9437620D02*
X66581428Y9437620D01*
X66752857Y8437620D02*
X66752857Y9437620D01*
D11*
X45243333Y817620D02*
X45576666Y1293810D01*
X45814761Y817620D02*
X45814761Y1817620D01*
X45433809Y1817620D01*
X45338571Y1770000D01*
X45290952Y1722381D01*
X45243333Y1627143D01*
X45243333Y1484286D01*
X45290952Y1389048D01*
X45338571Y1341429D01*
X45433809Y1293810D01*
X45814761Y1293810D01*
X44814761Y817620D02*
X44814761Y1817620D01*
X43624285Y1865239D02*
X44481428Y579524D01*
X42814761Y817620D02*
X43290952Y817620D01*
X43290952Y1817620D01*
X42148095Y1341429D02*
X42481428Y1341429D01*
X42481428Y817620D02*
X42481428Y1817620D01*
X42005238Y1817620D01*
X40910000Y1865239D02*
X41767142Y579524D01*
X40052857Y1770000D02*
X40148095Y1817620D01*
X40290952Y1817620D01*
X40433809Y1770000D01*
X40529047Y1674762D01*
X40576666Y1579524D01*
X40624285Y1389048D01*
X40624285Y1246191D01*
X40576666Y1055715D01*
X40529047Y960477D01*
X40433809Y865239D01*
X40290952Y817620D01*
X40195714Y817620D01*
X40052857Y865239D01*
X40005238Y912858D01*
X40005238Y1246191D01*
X40195714Y1246191D01*
X39576666Y817620D02*
X39576666Y1817620D01*
X39005238Y817620D01*
X39005238Y1817620D01*
X38529047Y817620D02*
X38529047Y1817620D01*
X38290952Y1817620D01*
X38148095Y1770000D01*
X38052857Y1674762D01*
X38005238Y1579524D01*
X37957619Y1389048D01*
X37957619Y1246191D01*
X38005238Y1055715D01*
X38052857Y960477D01*
X38148095Y865239D01*
X38290952Y817620D01*
X38529047Y817620D01*
X65833333Y48352620D02*
X66166666Y48828810D01*
X66404761Y48352620D02*
X66404761Y49352620D01*
X66023809Y49352620D01*
X65928571Y49305000D01*
X65880952Y49257381D01*
X65833333Y49162143D01*
X65833333Y49019286D01*
X65880952Y48924048D01*
X65928571Y48876429D01*
X66023809Y48828810D01*
X66404761Y48828810D01*
X64976190Y48352620D02*
X64976190Y48876429D01*
X65023809Y48971667D01*
X65119047Y49019286D01*
X65309523Y49019286D01*
X65404761Y48971667D01*
X64976190Y48400239D02*
X65071428Y48352620D01*
X65309523Y48352620D01*
X65404761Y48400239D01*
X65452380Y48495477D01*
X65452380Y48590715D01*
X65404761Y48685953D01*
X65309523Y48733572D01*
X65071428Y48733572D01*
X64976190Y48781191D01*
X64071428Y48352620D02*
X64071428Y49352620D01*
X64071428Y48400239D02*
X64166666Y48352620D01*
X64357142Y48352620D01*
X64452380Y48400239D01*
X64500000Y48447858D01*
X64547619Y48543096D01*
X64547619Y48828810D01*
X64500000Y48924048D01*
X64452380Y48971667D01*
X64357142Y49019286D01*
X64166666Y49019286D01*
X64071428Y48971667D01*
X63595238Y48352620D02*
X63595238Y49019286D01*
X63595238Y49352620D02*
X63642857Y49305000D01*
X63595238Y49257381D01*
X63547619Y49305000D01*
X63595238Y49352620D01*
X63595238Y49257381D01*
X62976190Y48352620D02*
X63071428Y48400239D01*
X63119047Y48447858D01*
X63166666Y48543096D01*
X63166666Y48828810D01*
X63119047Y48924048D01*
X63071428Y48971667D01*
X62976190Y49019286D01*
X62833333Y49019286D01*
X62738095Y48971667D01*
X62690476Y48924048D01*
X62642857Y48828810D01*
X62642857Y48543096D01*
X62690476Y48447858D01*
X62738095Y48400239D01*
X62833333Y48352620D01*
X62976190Y48352620D01*
X61642857Y48447858D02*
X61690476Y48400239D01*
X61833333Y48352620D01*
X61928571Y48352620D01*
X62071428Y48400239D01*
X62166666Y48495477D01*
X62214285Y48590715D01*
X62261904Y48781191D01*
X62261904Y48924048D01*
X62214285Y49114524D01*
X62166666Y49209762D01*
X62071428Y49305000D01*
X61928571Y49352620D01*
X61833333Y49352620D01*
X61690476Y49305000D01*
X61642857Y49257381D01*
X61357142Y49019286D02*
X60976190Y49019286D01*
X61214285Y49352620D02*
X61214285Y48495477D01*
X61166666Y48400239D01*
X61071428Y48352620D01*
X60976190Y48352620D01*
X60642857Y48352620D02*
X60642857Y49019286D01*
X60642857Y48828810D02*
X60595238Y48924048D01*
X60547619Y48971667D01*
X60452380Y49019286D01*
X60357142Y49019286D01*
X59880952Y48352620D02*
X59976190Y48400239D01*
X60023809Y48495477D01*
X60023809Y49352620D01*
X59500000Y48733572D02*
X58738095Y48733572D01*
X58071428Y49352620D02*
X57880952Y49352620D01*
X57785714Y49305000D01*
X57690476Y49209762D01*
X57642857Y49019286D01*
X57642857Y48685953D01*
X57690476Y48495477D01*
X57785714Y48400239D01*
X57880952Y48352620D01*
X58071428Y48352620D01*
X58166666Y48400239D01*
X58261904Y48495477D01*
X58309523Y48685953D01*
X58309523Y49019286D01*
X58261904Y49209762D01*
X58166666Y49305000D01*
X58071428Y49352620D01*
X57309523Y49019286D02*
X57071428Y48352620D01*
X56833333Y49019286D01*
X56071428Y48400239D02*
X56166666Y48352620D01*
X56357142Y48352620D01*
X56452380Y48400239D01*
X56500000Y48495477D01*
X56500000Y48876429D01*
X56452380Y48971667D01*
X56357142Y49019286D01*
X56166666Y49019286D01*
X56071428Y48971667D01*
X56023809Y48876429D01*
X56023809Y48781191D01*
X56500000Y48685953D01*
X55595238Y48352620D02*
X55595238Y49019286D01*
X55595238Y48828810D02*
X55547619Y48924048D01*
X55500000Y48971667D01*
X55404761Y49019286D01*
X55309523Y49019286D01*
X54976190Y48352620D02*
X54976190Y49019286D01*
X54976190Y48828810D02*
X54928571Y48924048D01*
X54880952Y48971667D01*
X54785714Y49019286D01*
X54690476Y49019286D01*
X54357142Y48352620D02*
X54357142Y49019286D01*
X54357142Y49352620D02*
X54404761Y49305000D01*
X54357142Y49257381D01*
X54309523Y49305000D01*
X54357142Y49352620D01*
X54357142Y49257381D01*
X53452380Y48352620D02*
X53452380Y49352620D01*
X53452380Y48400239D02*
X53547619Y48352620D01*
X53738095Y48352620D01*
X53833333Y48400239D01*
X53880952Y48447858D01*
X53928571Y48543096D01*
X53928571Y48828810D01*
X53880952Y48924048D01*
X53833333Y48971667D01*
X53738095Y49019286D01*
X53547619Y49019286D01*
X53452380Y48971667D01*
X52595238Y48400239D02*
X52690476Y48352620D01*
X52880952Y48352620D01*
X52976190Y48400239D01*
X53023809Y48495477D01*
X53023809Y48876429D01*
X52976190Y48971667D01*
X52880952Y49019286D01*
X52690476Y49019286D01*
X52595238Y48971667D01*
X52547619Y48876429D01*
X52547619Y48781191D01*
X53023809Y48685953D01*
X51500000Y49352620D02*
X51166666Y48352620D01*
X50833333Y49352620D01*
X49976190Y48352620D02*
X50547619Y48352620D01*
X50261904Y48352620D02*
X50261904Y49352620D01*
X50357142Y49209762D01*
X50452380Y49114524D01*
X50547619Y49066905D01*
X49547619Y48447858D02*
X49500000Y48400239D01*
X49547619Y48352620D01*
X49595238Y48400239D01*
X49547619Y48447858D01*
X49547619Y48352620D01*
X49119047Y49257381D02*
X49071428Y49305000D01*
X48976190Y49352620D01*
X48738095Y49352620D01*
X48642857Y49305000D01*
X48595238Y49257381D01*
X48547619Y49162143D01*
X48547619Y49066905D01*
X48595238Y48924048D01*
X49166666Y48352620D01*
X48547619Y48352620D01*
X66642857Y47647381D02*
X66595238Y47695000D01*
X66500000Y47742620D01*
X66261904Y47742620D01*
X66166666Y47695000D01*
X66119047Y47647381D01*
X66071428Y47552143D01*
X66071428Y47456905D01*
X66119047Y47314048D01*
X66690476Y46742620D01*
X66071428Y46742620D01*
X65452380Y47742620D02*
X65357142Y47742620D01*
X65261904Y47695000D01*
X65214285Y47647381D01*
X65166666Y47552143D01*
X65119047Y47361667D01*
X65119047Y47123572D01*
X65166666Y46933096D01*
X65214285Y46837858D01*
X65261904Y46790239D01*
X65357142Y46742620D01*
X65452380Y46742620D01*
X65547619Y46790239D01*
X65595238Y46837858D01*
X65642857Y46933096D01*
X65690476Y47123572D01*
X65690476Y47361667D01*
X65642857Y47552143D01*
X65595238Y47647381D01*
X65547619Y47695000D01*
X65452380Y47742620D01*
X64738095Y47647381D02*
X64690476Y47695000D01*
X64595238Y47742620D01*
X64357142Y47742620D01*
X64261904Y47695000D01*
X64214285Y47647381D01*
X64166666Y47552143D01*
X64166666Y47456905D01*
X64214285Y47314048D01*
X64785714Y46742620D01*
X64166666Y46742620D01*
X63833333Y47742620D02*
X63214285Y47742620D01*
X63547619Y47361667D01*
X63404761Y47361667D01*
X63309523Y47314048D01*
X63261904Y47266429D01*
X63214285Y47171191D01*
X63214285Y46933096D01*
X63261904Y46837858D01*
X63309523Y46790239D01*
X63404761Y46742620D01*
X63690476Y46742620D01*
X63785714Y46790239D01*
X63833333Y46837858D01*
X62071428Y47790239D02*
X62928571Y46504524D01*
X61547619Y47742620D02*
X61452380Y47742620D01*
X61357142Y47695000D01*
X61309523Y47647381D01*
X61261904Y47552143D01*
X61214285Y47361667D01*
X61214285Y47123572D01*
X61261904Y46933096D01*
X61309523Y46837858D01*
X61357142Y46790239D01*
X61452380Y46742620D01*
X61547619Y46742620D01*
X61642857Y46790239D01*
X61690476Y46837858D01*
X61738095Y46933096D01*
X61785714Y47123572D01*
X61785714Y47361667D01*
X61738095Y47552143D01*
X61690476Y47647381D01*
X61642857Y47695000D01*
X61547619Y47742620D01*
X60642857Y47314048D02*
X60738095Y47361667D01*
X60785714Y47409286D01*
X60833333Y47504524D01*
X60833333Y47552143D01*
X60785714Y47647381D01*
X60738095Y47695000D01*
X60642857Y47742620D01*
X60452380Y47742620D01*
X60357142Y47695000D01*
X60309523Y47647381D01*
X60261904Y47552143D01*
X60261904Y47504524D01*
X60309523Y47409286D01*
X60357142Y47361667D01*
X60452380Y47314048D01*
X60642857Y47314048D01*
X60738095Y47266429D01*
X60785714Y47218810D01*
X60833333Y47123572D01*
X60833333Y46933096D01*
X60785714Y46837858D01*
X60738095Y46790239D01*
X60642857Y46742620D01*
X60452380Y46742620D01*
X60357142Y46790239D01*
X60309523Y46837858D01*
X60261904Y46933096D01*
X60261904Y47123572D01*
X60309523Y47218810D01*
X60357142Y47266429D01*
X60452380Y47314048D01*
X59119047Y47790239D02*
X59976190Y46504524D01*
X58595238Y47742620D02*
X58500000Y47742620D01*
X58404761Y47695000D01*
X58357142Y47647381D01*
X58309523Y47552143D01*
X58261904Y47361667D01*
X58261904Y47123572D01*
X58309523Y46933096D01*
X58357142Y46837858D01*
X58404761Y46790239D01*
X58500000Y46742620D01*
X58595238Y46742620D01*
X58690476Y46790239D01*
X58738095Y46837858D01*
X58785714Y46933096D01*
X58833333Y47123572D01*
X58833333Y47361667D01*
X58785714Y47552143D01*
X58738095Y47647381D01*
X58690476Y47695000D01*
X58595238Y47742620D01*
X57404761Y47742620D02*
X57595238Y47742620D01*
X57690476Y47695000D01*
X57738095Y47647381D01*
X57833333Y47504524D01*
X57880952Y47314048D01*
X57880952Y46933096D01*
X57833333Y46837858D01*
X57785714Y46790239D01*
X57690476Y46742620D01*
X57500000Y46742620D01*
X57404761Y46790239D01*
X57357142Y46837858D01*
X57309523Y46933096D01*
X57309523Y47171191D01*
X57357142Y47266429D01*
X57404761Y47314048D01*
X57500000Y47361667D01*
X57690476Y47361667D01*
X57785714Y47314048D01*
X57833333Y47266429D01*
X57880952Y47171191D01*
X55595238Y47695000D02*
X55690476Y47742620D01*
X55833333Y47742620D01*
X55976190Y47695000D01*
X56071428Y47599762D01*
X56119047Y47504524D01*
X56166666Y47314048D01*
X56166666Y47171191D01*
X56119047Y46980715D01*
X56071428Y46885477D01*
X55976190Y46790239D01*
X55833333Y46742620D01*
X55738095Y46742620D01*
X55595238Y46790239D01*
X55547619Y46837858D01*
X55547619Y47171191D01*
X55738095Y47171191D01*
X55261904Y47742620D02*
X54690476Y47742620D01*
X54976190Y46742620D02*
X54976190Y47742620D01*
X53976190Y46790239D02*
X54071428Y46742620D01*
X54261904Y46742620D01*
X54357142Y46790239D01*
X54404761Y46885477D01*
X54404761Y47266429D01*
X54357142Y47361667D01*
X54261904Y47409286D01*
X54071428Y47409286D01*
X53976190Y47361667D01*
X53928571Y47266429D01*
X53928571Y47171191D01*
X54404761Y47075953D01*
X53071428Y46790239D02*
X53166666Y46742620D01*
X53357142Y46742620D01*
X53452380Y46790239D01*
X53500000Y46837858D01*
X53547619Y46933096D01*
X53547619Y47218810D01*
X53500000Y47314048D01*
X53452380Y47361667D01*
X53357142Y47409286D01*
X53166666Y47409286D01*
X53071428Y47361667D01*
X52642857Y46742620D02*
X52642857Y47742620D01*
X52214285Y46742620D02*
X52214285Y47266429D01*
X52261904Y47361667D01*
X52357142Y47409286D01*
X52500000Y47409286D01*
X52595238Y47361667D01*
X52642857Y47314048D01*
X51690476Y46742620D02*
X51500000Y46742620D01*
X51404761Y46790239D01*
X51357142Y46837858D01*
X51261904Y46980715D01*
X51214285Y47171191D01*
X51214285Y47552143D01*
X51261904Y47647381D01*
X51309523Y47695000D01*
X51404761Y47742620D01*
X51595238Y47742620D01*
X51690476Y47695000D01*
X51738095Y47647381D01*
X51785714Y47552143D01*
X51785714Y47314048D01*
X51738095Y47218810D01*
X51690476Y47171191D01*
X51595238Y47123572D01*
X51404761Y47123572D01*
X51309523Y47171191D01*
X51261904Y47218810D01*
X51214285Y47314048D01*
X50738095Y46742620D02*
X50547619Y46742620D01*
X50452380Y46790239D01*
X50404761Y46837858D01*
X50309523Y46980715D01*
X50261904Y47171191D01*
X50261904Y47552143D01*
X50309523Y47647381D01*
X50357142Y47695000D01*
X50452380Y47742620D01*
X50642857Y47742620D01*
X50738095Y47695000D01*
X50785714Y47647381D01*
X50833333Y47552143D01*
X50833333Y47314048D01*
X50785714Y47218810D01*
X50738095Y47171191D01*
X50642857Y47123572D01*
X50452380Y47123572D01*
X50357142Y47171191D01*
X50309523Y47218810D01*
X50261904Y47314048D01*
X49928571Y47742620D02*
X49261904Y47742620D01*
X49690476Y46742620D01*
X48357142Y46742620D02*
X48928571Y46742620D01*
X48642857Y46742620D02*
X48642857Y47742620D01*
X48738095Y47599762D01*
X48833333Y47504524D01*
X48928571Y47456905D01*
M02*
