M48
; DRILL file {KiCad (6.0.11-0)} date 
; FORMAT={-:-/ absolute / metric / decimal}
; #@! TF.CreationDate,2023-07-27T23:46:09+09:00
; #@! TF.GenerationSoftware,Kicad,Pcbnew,(6.0.11-0)
; #@! TF.FileFunction,MixedPlating,1,2
FMAT,2
METRIC
; #@! TA.AperFunction,Plated,PTH,ViaDrill
T1C0.300
; #@! TA.AperFunction,Plated,PTH,ComponentDrill
T2C0.700
; #@! TA.AperFunction,Plated,PTH,ComponentDrill
T3C0.800
; #@! TA.AperFunction,Plated,PTH,ComponentDrill
T4C0.900
; #@! TA.AperFunction,Plated,PTH,ComponentDrill
T5C1.000
; #@! TA.AperFunction,Plated,PTH,ComponentDrill
T6C1.400
; #@! TA.AperFunction,NonPlated,NPTH,ComponentDrill
T7C3.200
%
G90
G05
T1
X4.445Y15.24
X4.445Y8.255
X15.875Y46.355
X15.875Y37.465
X15.875Y24.765
X15.875Y15.24
X24.13Y37.465
X26.67Y46.355
X27.305Y24.765
X35.56Y24.765
X36.83Y46.355
X36.83Y26.035
X37.465Y27.305
X40.005Y27.305
X40.005Y26.035
X48.26Y46.355
X53.975Y6.985
X58.42Y20.955
X58.42Y15.24
X60.96Y37.465
X61.595Y46.355
X61.595Y38.735
X67.31Y17.145
X71.755Y26.035
X71.755Y15.24
T2
X9.475Y28.575
X12.015Y28.575
X23.495Y24.765
X23.495Y22.225
X31.115Y24.715
X31.115Y22.175
X43.18Y24.66
X43.18Y22.12
X50.8Y24.67
X50.8Y22.13
X55.245Y41.86
X55.245Y39.32
T3
X19.685Y16.785
X22.225Y16.785
X24.765Y16.785
X29.2Y38.725
X29.2Y31.105
X29.21Y16.785
X31.74Y38.725
X31.74Y31.105
X31.75Y16.785
X34.28Y38.725
X34.28Y31.105
X34.29Y16.785
X36.82Y38.725
X36.82Y31.105
X39.36Y38.725
X39.36Y31.105
X39.37Y16.785
X41.9Y38.725
X41.9Y31.105
X41.91Y16.785
X44.44Y38.725
X44.44Y31.105
X44.45Y16.785
X46.98Y38.725
X46.98Y31.105
X48.26Y16.785
X49.52Y38.725
X49.52Y31.105
X50.8Y16.785
X53.34Y16.785
X55.245Y36.175
X55.245Y33.675
T4
X5.08Y28.575
X5.08Y26.035
T5
X12.02Y47.6
X12.02Y45.06
X12.02Y42.52
X12.02Y39.98
X12.02Y37.44
X12.02Y34.9
X59.715Y11.385
X62.255Y11.385
X64.795Y11.385
X67.335Y11.385
X69.875Y11.385
X72.415Y11.385
T6
X17.877Y7.813
X22.957Y7.813
X28.037Y7.813
X37.46Y7.813
X42.54Y7.813
X47.62Y7.813
T7
X3.81Y3.81
X71.12Y46.0
T5
G00X67.212Y35.5
M15
G01X67.212Y33.0
M16
G05
G00X69.212Y38.95
M15
G01X71.212Y38.95
M16
G05
G00X73.212Y35.25
M15
G01X73.212Y33.25
M16
G05
T0
M30
