G04 #@! TF.GenerationSoftware,KiCad,Pcbnew,(6.0.11-0)*
G04 #@! TF.CreationDate,2023-07-15T22:38:05+09:00*
G04 #@! TF.ProjectId,RadioCtrl-Override,52616469-6f43-4747-926c-2d4f76657272,rev?*
G04 #@! TF.SameCoordinates,PX7bfa480PY7bfa480*
G04 #@! TF.FileFunction,Legend,Bot*
G04 #@! TF.FilePolarity,Positive*
%FSLAX46Y46*%
G04 Gerber Fmt 4.6, Leading zero omitted, Abs format (unit mm)*
G04 Created by KiCad (PCBNEW (6.0.11-0)) date 2023-07-15 22:38:05*
%MOMM*%
%LPD*%
G01*
G04 APERTURE LIST*
%ADD10C,0.150000*%
%ADD11C,0.125000*%
G04 APERTURE END LIST*
D10*
X26129761Y1341429D02*
X25986904Y1293810D01*
X25939285Y1246191D01*
X25891666Y1150953D01*
X25891666Y1008096D01*
X25939285Y912858D01*
X25986904Y865239D01*
X26082142Y817620D01*
X26463095Y817620D01*
X26463095Y1817620D01*
X26129761Y1817620D01*
X26034523Y1770000D01*
X25986904Y1722381D01*
X25939285Y1627143D01*
X25939285Y1531905D01*
X25986904Y1436667D01*
X26034523Y1389048D01*
X26129761Y1341429D01*
X26463095Y1341429D01*
X25463095Y817620D02*
X25463095Y1817620D01*
X24891666Y817620D02*
X25320238Y1389048D01*
X24891666Y1817620D02*
X25463095Y1246191D01*
X23748809Y1865239D02*
X24605952Y579524D01*
X23082142Y1341429D02*
X23415476Y1341429D01*
X23415476Y817620D02*
X23415476Y1817620D01*
X22939285Y1817620D01*
X22653571Y1817620D02*
X22415476Y817620D01*
X22225000Y1531905D01*
X22034523Y817620D01*
X21796428Y1817620D01*
X20701190Y1865239D02*
X21558333Y579524D01*
X20510714Y1817620D02*
X20177380Y817620D01*
X19844047Y1817620D01*
X18939285Y912858D02*
X18986904Y865239D01*
X19129761Y817620D01*
X19225000Y817620D01*
X19367857Y865239D01*
X19463095Y960477D01*
X19510714Y1055715D01*
X19558333Y1246191D01*
X19558333Y1389048D01*
X19510714Y1579524D01*
X19463095Y1674762D01*
X19367857Y1770000D01*
X19225000Y1817620D01*
X19129761Y1817620D01*
X18986904Y1770000D01*
X18939285Y1722381D01*
X17939285Y912858D02*
X17986904Y865239D01*
X18129761Y817620D01*
X18225000Y817620D01*
X18367857Y865239D01*
X18463095Y960477D01*
X18510714Y1055715D01*
X18558333Y1246191D01*
X18558333Y1389048D01*
X18510714Y1579524D01*
X18463095Y1674762D01*
X18367857Y1770000D01*
X18225000Y1817620D01*
X18129761Y1817620D01*
X17986904Y1770000D01*
X17939285Y1722381D01*
X40131904Y41775000D02*
X40227142Y41822620D01*
X40370000Y41822620D01*
X40512857Y41775000D01*
X40608095Y41679762D01*
X40655714Y41584524D01*
X40703333Y41394048D01*
X40703333Y41251191D01*
X40655714Y41060715D01*
X40608095Y40965477D01*
X40512857Y40870239D01*
X40370000Y40822620D01*
X40274761Y40822620D01*
X40131904Y40870239D01*
X40084285Y40917858D01*
X40084285Y41251191D01*
X40274761Y41251191D01*
X39655714Y40822620D02*
X39655714Y41822620D01*
X39084285Y40822620D01*
X39084285Y41822620D01*
X38608095Y40822620D02*
X38608095Y41822620D01*
X38370000Y41822620D01*
X38227142Y41775000D01*
X38131904Y41679762D01*
X38084285Y41584524D01*
X38036666Y41394048D01*
X38036666Y41251191D01*
X38084285Y41060715D01*
X38131904Y40965477D01*
X38227142Y40870239D01*
X38370000Y40822620D01*
X38608095Y40822620D01*
D11*
X12200000Y44907143D02*
X12152380Y44964286D01*
X12152380Y45050000D01*
X12200000Y45135715D01*
X12295238Y45192858D01*
X12390476Y45221429D01*
X12580952Y45250000D01*
X12723809Y45250000D01*
X12914285Y45221429D01*
X13009523Y45192858D01*
X13104761Y45135715D01*
X13152380Y45050000D01*
X13152380Y44992858D01*
X13104761Y44907143D01*
X13057142Y44878572D01*
X12723809Y44878572D01*
X12723809Y44992858D01*
X13152380Y44621429D02*
X12152380Y44621429D01*
X13152380Y44278572D01*
X12152380Y44278572D01*
X13152380Y43992858D02*
X12152380Y43992858D01*
X12152380Y43850000D01*
X12200000Y43764286D01*
X12295238Y43707143D01*
X12390476Y43678572D01*
X12580952Y43650000D01*
X12723809Y43650000D01*
X12914285Y43678572D01*
X13009523Y43707143D01*
X13104761Y43764286D01*
X13152380Y43850000D01*
X13152380Y43992858D01*
D10*
X73786904Y30980000D02*
X73882142Y31027620D01*
X74025000Y31027620D01*
X74167857Y30980000D01*
X74263095Y30884762D01*
X74310714Y30789524D01*
X74358333Y30599048D01*
X74358333Y30456191D01*
X74310714Y30265715D01*
X74263095Y30170477D01*
X74167857Y30075239D01*
X74025000Y30027620D01*
X73929761Y30027620D01*
X73786904Y30075239D01*
X73739285Y30122858D01*
X73739285Y30456191D01*
X73929761Y30456191D01*
X73310714Y30027620D02*
X73310714Y31027620D01*
X72739285Y30027620D01*
X72739285Y31027620D01*
X72263095Y30027620D02*
X72263095Y31027620D01*
X72025000Y31027620D01*
X71882142Y30980000D01*
X71786904Y30884762D01*
X71739285Y30789524D01*
X71691666Y30599048D01*
X71691666Y30456191D01*
X71739285Y30265715D01*
X71786904Y30170477D01*
X71882142Y30075239D01*
X72025000Y30027620D01*
X72263095Y30027620D01*
D11*
X12152380Y47155000D02*
X13152380Y46955000D01*
X12152380Y46755000D01*
X13057142Y46212143D02*
X13104761Y46240715D01*
X13152380Y46326429D01*
X13152380Y46383572D01*
X13104761Y46469286D01*
X13009523Y46526429D01*
X12914285Y46555000D01*
X12723809Y46583572D01*
X12580952Y46583572D01*
X12390476Y46555000D01*
X12295238Y46526429D01*
X12200000Y46469286D01*
X12152380Y46383572D01*
X12152380Y46326429D01*
X12200000Y46240715D01*
X12247619Y46212143D01*
X13057142Y45612143D02*
X13104761Y45640715D01*
X13152380Y45726429D01*
X13152380Y45783572D01*
X13104761Y45869286D01*
X13009523Y45926429D01*
X12914285Y45955000D01*
X12723809Y45983572D01*
X12580952Y45983572D01*
X12390476Y45955000D01*
X12295238Y45926429D01*
X12200000Y45869286D01*
X12152380Y45783572D01*
X12152380Y45726429D01*
X12200000Y45640715D01*
X12247619Y45612143D01*
X63665000Y7532620D02*
X63465000Y6532620D01*
X63265000Y7532620D01*
X62722142Y6627858D02*
X62750714Y6580239D01*
X62836428Y6532620D01*
X62893571Y6532620D01*
X62979285Y6580239D01*
X63036428Y6675477D01*
X63065000Y6770715D01*
X63093571Y6961191D01*
X63093571Y7104048D01*
X63065000Y7294524D01*
X63036428Y7389762D01*
X62979285Y7485000D01*
X62893571Y7532620D01*
X62836428Y7532620D01*
X62750714Y7485000D01*
X62722142Y7437381D01*
X62122142Y6627858D02*
X62150714Y6580239D01*
X62236428Y6532620D01*
X62293571Y6532620D01*
X62379285Y6580239D01*
X62436428Y6675477D01*
X62465000Y6770715D01*
X62493571Y6961191D01*
X62493571Y7104048D01*
X62465000Y7294524D01*
X62436428Y7389762D01*
X62379285Y7485000D01*
X62293571Y7532620D01*
X62236428Y7532620D01*
X62150714Y7485000D01*
X62122142Y7437381D01*
X65227142Y7485000D02*
X65284285Y7532620D01*
X65370000Y7532620D01*
X65455714Y7485000D01*
X65512857Y7389762D01*
X65541428Y7294524D01*
X65570000Y7104048D01*
X65570000Y6961191D01*
X65541428Y6770715D01*
X65512857Y6675477D01*
X65455714Y6580239D01*
X65370000Y6532620D01*
X65312857Y6532620D01*
X65227142Y6580239D01*
X65198571Y6627858D01*
X65198571Y6961191D01*
X65312857Y6961191D01*
X64941428Y6532620D02*
X64941428Y7532620D01*
X64598571Y6532620D01*
X64598571Y7532620D01*
X64312857Y6532620D02*
X64312857Y7532620D01*
X64170000Y7532620D01*
X64084285Y7485000D01*
X64027142Y7389762D01*
X63998571Y7294524D01*
X63970000Y7104048D01*
X63970000Y6961191D01*
X63998571Y6770715D01*
X64027142Y6675477D01*
X64084285Y6580239D01*
X64170000Y6532620D01*
X64312857Y6532620D01*
D10*
X40703333Y29122620D02*
X40370000Y28122620D01*
X40036666Y29122620D01*
X39131904Y28217858D02*
X39179523Y28170239D01*
X39322380Y28122620D01*
X39417619Y28122620D01*
X39560476Y28170239D01*
X39655714Y28265477D01*
X39703333Y28360715D01*
X39750952Y28551191D01*
X39750952Y28694048D01*
X39703333Y28884524D01*
X39655714Y28979762D01*
X39560476Y29075000D01*
X39417619Y29122620D01*
X39322380Y29122620D01*
X39179523Y29075000D01*
X39131904Y29027381D01*
X38131904Y28217858D02*
X38179523Y28170239D01*
X38322380Y28122620D01*
X38417619Y28122620D01*
X38560476Y28170239D01*
X38655714Y28265477D01*
X38703333Y28360715D01*
X38750952Y28551191D01*
X38750952Y28694048D01*
X38703333Y28884524D01*
X38655714Y28979762D01*
X38560476Y29075000D01*
X38417619Y29122620D01*
X38322380Y29122620D01*
X38179523Y29075000D01*
X38131904Y29027381D01*
X64222380Y35623334D02*
X65222380Y35290000D01*
X64222380Y34956667D01*
X65127142Y34051905D02*
X65174761Y34099524D01*
X65222380Y34242381D01*
X65222380Y34337620D01*
X65174761Y34480477D01*
X65079523Y34575715D01*
X64984285Y34623334D01*
X64793809Y34670953D01*
X64650952Y34670953D01*
X64460476Y34623334D01*
X64365238Y34575715D01*
X64270000Y34480477D01*
X64222380Y34337620D01*
X64222380Y34242381D01*
X64270000Y34099524D01*
X64317619Y34051905D01*
X65127142Y33051905D02*
X65174761Y33099524D01*
X65222380Y33242381D01*
X65222380Y33337620D01*
X65174761Y33480477D01*
X65079523Y33575715D01*
X64984285Y33623334D01*
X64793809Y33670953D01*
X64650952Y33670953D01*
X64460476Y33623334D01*
X64365238Y33575715D01*
X64270000Y33480477D01*
X64222380Y33337620D01*
X64222380Y33242381D01*
X64270000Y33099524D01*
X64317619Y33051905D01*
D11*
X68937142Y6627858D02*
X68965714Y6580239D01*
X69051428Y6532620D01*
X69108571Y6532620D01*
X69194285Y6580239D01*
X69251428Y6675477D01*
X69280000Y6770715D01*
X69308571Y6961191D01*
X69308571Y7104048D01*
X69280000Y7294524D01*
X69251428Y7389762D01*
X69194285Y7485000D01*
X69108571Y7532620D01*
X69051428Y7532620D01*
X68965714Y7485000D01*
X68937142Y7437381D01*
X68394285Y6532620D02*
X68680000Y6532620D01*
X68680000Y7532620D01*
X68194285Y6532620D02*
X68194285Y7532620D01*
X67851428Y6532620D02*
X68108571Y7104048D01*
X67851428Y7532620D02*
X68194285Y6961191D01*
X67317857Y6532620D02*
X67317857Y7532620D01*
X67175000Y7532620D01*
X67089285Y7485000D01*
X67032142Y7389762D01*
X67003571Y7294524D01*
X66975000Y7104048D01*
X66975000Y6961191D01*
X67003571Y6770715D01*
X67032142Y6675477D01*
X67089285Y6580239D01*
X67175000Y6532620D01*
X67317857Y6532620D01*
X66746428Y6818334D02*
X66460714Y6818334D01*
X66803571Y6532620D02*
X66603571Y7532620D01*
X66403571Y6532620D01*
X66289285Y7532620D02*
X65946428Y7532620D01*
X66117857Y6532620D02*
X66117857Y7532620D01*
D10*
X45148095Y817620D02*
X45481428Y1293810D01*
X45719523Y817620D02*
X45719523Y1817620D01*
X45338571Y1817620D01*
X45243333Y1770000D01*
X45195714Y1722381D01*
X45148095Y1627143D01*
X45148095Y1484286D01*
X45195714Y1389048D01*
X45243333Y1341429D01*
X45338571Y1293810D01*
X45719523Y1293810D01*
X44719523Y817620D02*
X44719523Y1817620D01*
X43529047Y1865239D02*
X44386190Y579524D01*
X42719523Y817620D02*
X43195714Y817620D01*
X43195714Y1817620D01*
X42052857Y1341429D02*
X42386190Y1341429D01*
X42386190Y817620D02*
X42386190Y1817620D01*
X41910000Y1817620D01*
X40814761Y1865239D02*
X41671904Y579524D01*
X40624285Y1817620D02*
X40290952Y817620D01*
X39957619Y1817620D01*
X39052857Y912858D02*
X39100476Y865239D01*
X39243333Y817620D01*
X39338571Y817620D01*
X39481428Y865239D01*
X39576666Y960477D01*
X39624285Y1055715D01*
X39671904Y1246191D01*
X39671904Y1389048D01*
X39624285Y1579524D01*
X39576666Y1674762D01*
X39481428Y1770000D01*
X39338571Y1817620D01*
X39243333Y1817620D01*
X39100476Y1770000D01*
X39052857Y1722381D01*
X38052857Y912858D02*
X38100476Y865239D01*
X38243333Y817620D01*
X38338571Y817620D01*
X38481428Y865239D01*
X38576666Y960477D01*
X38624285Y1055715D01*
X38671904Y1246191D01*
X38671904Y1389048D01*
X38624285Y1579524D01*
X38576666Y1674762D01*
X38481428Y1770000D01*
X38338571Y1817620D01*
X38243333Y1817620D01*
X38100476Y1770000D01*
X38052857Y1722381D01*
X65833333Y48352620D02*
X66166666Y48828810D01*
X66404761Y48352620D02*
X66404761Y49352620D01*
X66023809Y49352620D01*
X65928571Y49305000D01*
X65880952Y49257381D01*
X65833333Y49162143D01*
X65833333Y49019286D01*
X65880952Y48924048D01*
X65928571Y48876429D01*
X66023809Y48828810D01*
X66404761Y48828810D01*
X64976190Y48352620D02*
X64976190Y48876429D01*
X65023809Y48971667D01*
X65119047Y49019286D01*
X65309523Y49019286D01*
X65404761Y48971667D01*
X64976190Y48400239D02*
X65071428Y48352620D01*
X65309523Y48352620D01*
X65404761Y48400239D01*
X65452380Y48495477D01*
X65452380Y48590715D01*
X65404761Y48685953D01*
X65309523Y48733572D01*
X65071428Y48733572D01*
X64976190Y48781191D01*
X64071428Y48352620D02*
X64071428Y49352620D01*
X64071428Y48400239D02*
X64166666Y48352620D01*
X64357142Y48352620D01*
X64452380Y48400239D01*
X64500000Y48447858D01*
X64547619Y48543096D01*
X64547619Y48828810D01*
X64500000Y48924048D01*
X64452380Y48971667D01*
X64357142Y49019286D01*
X64166666Y49019286D01*
X64071428Y48971667D01*
X63595238Y48352620D02*
X63595238Y49019286D01*
X63595238Y49352620D02*
X63642857Y49305000D01*
X63595238Y49257381D01*
X63547619Y49305000D01*
X63595238Y49352620D01*
X63595238Y49257381D01*
X62976190Y48352620D02*
X63071428Y48400239D01*
X63119047Y48447858D01*
X63166666Y48543096D01*
X63166666Y48828810D01*
X63119047Y48924048D01*
X63071428Y48971667D01*
X62976190Y49019286D01*
X62833333Y49019286D01*
X62738095Y48971667D01*
X62690476Y48924048D01*
X62642857Y48828810D01*
X62642857Y48543096D01*
X62690476Y48447858D01*
X62738095Y48400239D01*
X62833333Y48352620D01*
X62976190Y48352620D01*
X61642857Y48447858D02*
X61690476Y48400239D01*
X61833333Y48352620D01*
X61928571Y48352620D01*
X62071428Y48400239D01*
X62166666Y48495477D01*
X62214285Y48590715D01*
X62261904Y48781191D01*
X62261904Y48924048D01*
X62214285Y49114524D01*
X62166666Y49209762D01*
X62071428Y49305000D01*
X61928571Y49352620D01*
X61833333Y49352620D01*
X61690476Y49305000D01*
X61642857Y49257381D01*
X61357142Y49019286D02*
X60976190Y49019286D01*
X61214285Y49352620D02*
X61214285Y48495477D01*
X61166666Y48400239D01*
X61071428Y48352620D01*
X60976190Y48352620D01*
X60642857Y48352620D02*
X60642857Y49019286D01*
X60642857Y48828810D02*
X60595238Y48924048D01*
X60547619Y48971667D01*
X60452380Y49019286D01*
X60357142Y49019286D01*
X59880952Y48352620D02*
X59976190Y48400239D01*
X60023809Y48495477D01*
X60023809Y49352620D01*
X59500000Y48733572D02*
X58738095Y48733572D01*
X58071428Y49352620D02*
X57880952Y49352620D01*
X57785714Y49305000D01*
X57690476Y49209762D01*
X57642857Y49019286D01*
X57642857Y48685953D01*
X57690476Y48495477D01*
X57785714Y48400239D01*
X57880952Y48352620D01*
X58071428Y48352620D01*
X58166666Y48400239D01*
X58261904Y48495477D01*
X58309523Y48685953D01*
X58309523Y49019286D01*
X58261904Y49209762D01*
X58166666Y49305000D01*
X58071428Y49352620D01*
X57309523Y49019286D02*
X57071428Y48352620D01*
X56833333Y49019286D01*
X56071428Y48400239D02*
X56166666Y48352620D01*
X56357142Y48352620D01*
X56452380Y48400239D01*
X56500000Y48495477D01*
X56500000Y48876429D01*
X56452380Y48971667D01*
X56357142Y49019286D01*
X56166666Y49019286D01*
X56071428Y48971667D01*
X56023809Y48876429D01*
X56023809Y48781191D01*
X56500000Y48685953D01*
X55595238Y48352620D02*
X55595238Y49019286D01*
X55595238Y48828810D02*
X55547619Y48924048D01*
X55500000Y48971667D01*
X55404761Y49019286D01*
X55309523Y49019286D01*
X54976190Y48352620D02*
X54976190Y49019286D01*
X54976190Y48828810D02*
X54928571Y48924048D01*
X54880952Y48971667D01*
X54785714Y49019286D01*
X54690476Y49019286D01*
X54357142Y48352620D02*
X54357142Y49019286D01*
X54357142Y49352620D02*
X54404761Y49305000D01*
X54357142Y49257381D01*
X54309523Y49305000D01*
X54357142Y49352620D01*
X54357142Y49257381D01*
X53452380Y48352620D02*
X53452380Y49352620D01*
X53452380Y48400239D02*
X53547619Y48352620D01*
X53738095Y48352620D01*
X53833333Y48400239D01*
X53880952Y48447858D01*
X53928571Y48543096D01*
X53928571Y48828810D01*
X53880952Y48924048D01*
X53833333Y48971667D01*
X53738095Y49019286D01*
X53547619Y49019286D01*
X53452380Y48971667D01*
X52595238Y48400239D02*
X52690476Y48352620D01*
X52880952Y48352620D01*
X52976190Y48400239D01*
X53023809Y48495477D01*
X53023809Y48876429D01*
X52976190Y48971667D01*
X52880952Y49019286D01*
X52690476Y49019286D01*
X52595238Y48971667D01*
X52547619Y48876429D01*
X52547619Y48781191D01*
X53023809Y48685953D01*
X51500000Y49352620D02*
X51166666Y48352620D01*
X50833333Y49352620D01*
X49976190Y48352620D02*
X50547619Y48352620D01*
X50261904Y48352620D02*
X50261904Y49352620D01*
X50357142Y49209762D01*
X50452380Y49114524D01*
X50547619Y49066905D01*
X49547619Y48447858D02*
X49500000Y48400239D01*
X49547619Y48352620D01*
X49595238Y48400239D01*
X49547619Y48447858D01*
X49547619Y48352620D01*
X48880952Y49352620D02*
X48785714Y49352620D01*
X48690476Y49305000D01*
X48642857Y49257381D01*
X48595238Y49162143D01*
X48547619Y48971667D01*
X48547619Y48733572D01*
X48595238Y48543096D01*
X48642857Y48447858D01*
X48690476Y48400239D01*
X48785714Y48352620D01*
X48880952Y48352620D01*
X48976190Y48400239D01*
X49023809Y48447858D01*
X49071428Y48543096D01*
X49119047Y48733572D01*
X49119047Y48971667D01*
X49071428Y49162143D01*
X49023809Y49257381D01*
X48976190Y49305000D01*
X48880952Y49352620D01*
X66642857Y47647381D02*
X66595238Y47695000D01*
X66500000Y47742620D01*
X66261904Y47742620D01*
X66166666Y47695000D01*
X66119047Y47647381D01*
X66071428Y47552143D01*
X66071428Y47456905D01*
X66119047Y47314048D01*
X66690476Y46742620D01*
X66071428Y46742620D01*
X65452380Y47742620D02*
X65357142Y47742620D01*
X65261904Y47695000D01*
X65214285Y47647381D01*
X65166666Y47552143D01*
X65119047Y47361667D01*
X65119047Y47123572D01*
X65166666Y46933096D01*
X65214285Y46837858D01*
X65261904Y46790239D01*
X65357142Y46742620D01*
X65452380Y46742620D01*
X65547619Y46790239D01*
X65595238Y46837858D01*
X65642857Y46933096D01*
X65690476Y47123572D01*
X65690476Y47361667D01*
X65642857Y47552143D01*
X65595238Y47647381D01*
X65547619Y47695000D01*
X65452380Y47742620D01*
X64738095Y47647381D02*
X64690476Y47695000D01*
X64595238Y47742620D01*
X64357142Y47742620D01*
X64261904Y47695000D01*
X64214285Y47647381D01*
X64166666Y47552143D01*
X64166666Y47456905D01*
X64214285Y47314048D01*
X64785714Y46742620D01*
X64166666Y46742620D01*
X63833333Y47742620D02*
X63214285Y47742620D01*
X63547619Y47361667D01*
X63404761Y47361667D01*
X63309523Y47314048D01*
X63261904Y47266429D01*
X63214285Y47171191D01*
X63214285Y46933096D01*
X63261904Y46837858D01*
X63309523Y46790239D01*
X63404761Y46742620D01*
X63690476Y46742620D01*
X63785714Y46790239D01*
X63833333Y46837858D01*
X62071428Y47790239D02*
X62928571Y46504524D01*
X61547619Y47742620D02*
X61452380Y47742620D01*
X61357142Y47695000D01*
X61309523Y47647381D01*
X61261904Y47552143D01*
X61214285Y47361667D01*
X61214285Y47123572D01*
X61261904Y46933096D01*
X61309523Y46837858D01*
X61357142Y46790239D01*
X61452380Y46742620D01*
X61547619Y46742620D01*
X61642857Y46790239D01*
X61690476Y46837858D01*
X61738095Y46933096D01*
X61785714Y47123572D01*
X61785714Y47361667D01*
X61738095Y47552143D01*
X61690476Y47647381D01*
X61642857Y47695000D01*
X61547619Y47742620D01*
X60880952Y47742620D02*
X60214285Y47742620D01*
X60642857Y46742620D01*
X59119047Y47790239D02*
X59976190Y46504524D01*
X58261904Y46742620D02*
X58833333Y46742620D01*
X58547619Y46742620D02*
X58547619Y47742620D01*
X58642857Y47599762D01*
X58738095Y47504524D01*
X58833333Y47456905D01*
X57357142Y47742620D02*
X57833333Y47742620D01*
X57880952Y47266429D01*
X57833333Y47314048D01*
X57738095Y47361667D01*
X57500000Y47361667D01*
X57404761Y47314048D01*
X57357142Y47266429D01*
X57309523Y47171191D01*
X57309523Y46933096D01*
X57357142Y46837858D01*
X57404761Y46790239D01*
X57500000Y46742620D01*
X57738095Y46742620D01*
X57833333Y46790239D01*
X57880952Y46837858D01*
X55595238Y47695000D02*
X55690476Y47742620D01*
X55833333Y47742620D01*
X55976190Y47695000D01*
X56071428Y47599762D01*
X56119047Y47504524D01*
X56166666Y47314048D01*
X56166666Y47171191D01*
X56119047Y46980715D01*
X56071428Y46885477D01*
X55976190Y46790239D01*
X55833333Y46742620D01*
X55738095Y46742620D01*
X55595238Y46790239D01*
X55547619Y46837858D01*
X55547619Y47171191D01*
X55738095Y47171191D01*
X55261904Y47742620D02*
X54690476Y47742620D01*
X54976190Y46742620D02*
X54976190Y47742620D01*
X53976190Y46790239D02*
X54071428Y46742620D01*
X54261904Y46742620D01*
X54357142Y46790239D01*
X54404761Y46885477D01*
X54404761Y47266429D01*
X54357142Y47361667D01*
X54261904Y47409286D01*
X54071428Y47409286D01*
X53976190Y47361667D01*
X53928571Y47266429D01*
X53928571Y47171191D01*
X54404761Y47075953D01*
X53071428Y46790239D02*
X53166666Y46742620D01*
X53357142Y46742620D01*
X53452380Y46790239D01*
X53500000Y46837858D01*
X53547619Y46933096D01*
X53547619Y47218810D01*
X53500000Y47314048D01*
X53452380Y47361667D01*
X53357142Y47409286D01*
X53166666Y47409286D01*
X53071428Y47361667D01*
X52642857Y46742620D02*
X52642857Y47742620D01*
X52214285Y46742620D02*
X52214285Y47266429D01*
X52261904Y47361667D01*
X52357142Y47409286D01*
X52500000Y47409286D01*
X52595238Y47361667D01*
X52642857Y47314048D01*
X51690476Y46742620D02*
X51500000Y46742620D01*
X51404761Y46790239D01*
X51357142Y46837858D01*
X51261904Y46980715D01*
X51214285Y47171191D01*
X51214285Y47552143D01*
X51261904Y47647381D01*
X51309523Y47695000D01*
X51404761Y47742620D01*
X51595238Y47742620D01*
X51690476Y47695000D01*
X51738095Y47647381D01*
X51785714Y47552143D01*
X51785714Y47314048D01*
X51738095Y47218810D01*
X51690476Y47171191D01*
X51595238Y47123572D01*
X51404761Y47123572D01*
X51309523Y47171191D01*
X51261904Y47218810D01*
X51214285Y47314048D01*
X50738095Y46742620D02*
X50547619Y46742620D01*
X50452380Y46790239D01*
X50404761Y46837858D01*
X50309523Y46980715D01*
X50261904Y47171191D01*
X50261904Y47552143D01*
X50309523Y47647381D01*
X50357142Y47695000D01*
X50452380Y47742620D01*
X50642857Y47742620D01*
X50738095Y47695000D01*
X50785714Y47647381D01*
X50833333Y47552143D01*
X50833333Y47314048D01*
X50785714Y47218810D01*
X50738095Y47171191D01*
X50642857Y47123572D01*
X50452380Y47123572D01*
X50357142Y47171191D01*
X50309523Y47218810D01*
X50261904Y47314048D01*
X49928571Y47742620D02*
X49261904Y47742620D01*
X49690476Y46742620D01*
X48357142Y46742620D02*
X48928571Y46742620D01*
X48642857Y46742620D02*
X48642857Y47742620D01*
X48738095Y47599762D01*
X48833333Y47504524D01*
X48928571Y47456905D01*
M02*
