G04 #@! TF.GenerationSoftware,KiCad,Pcbnew,(6.0.11-0)*
G04 #@! TF.CreationDate,2023-07-15T22:38:05+09:00*
G04 #@! TF.ProjectId,RadioCtrl-Override,52616469-6f43-4747-926c-2d4f76657272,rev?*
G04 #@! TF.SameCoordinates,PX7bfa480PY7bfa480*
G04 #@! TF.FileFunction,Legend,Top*
G04 #@! TF.FilePolarity,Positive*
%FSLAX46Y46*%
G04 Gerber Fmt 4.6, Leading zero omitted, Abs format (unit mm)*
G04 Created by KiCad (PCBNEW (6.0.11-0)) date 2023-07-15 22:38:05*
%MOMM*%
%LPD*%
G01*
G04 APERTURE LIST*
%ADD10C,0.150000*%
%ADD11C,0.120000*%
%ADD12C,0.127000*%
%ADD13C,0.400000*%
G04 APERTURE END LIST*
D10*
X49167023Y48612620D02*
X48833690Y49088810D01*
X48595595Y48612620D02*
X48595595Y49612620D01*
X48976547Y49612620D01*
X49071785Y49565000D01*
X49119404Y49517381D01*
X49167023Y49422143D01*
X49167023Y49279286D01*
X49119404Y49184048D01*
X49071785Y49136429D01*
X48976547Y49088810D01*
X48595595Y49088810D01*
X50024166Y48612620D02*
X50024166Y49136429D01*
X49976547Y49231667D01*
X49881309Y49279286D01*
X49690833Y49279286D01*
X49595595Y49231667D01*
X50024166Y48660239D02*
X49928928Y48612620D01*
X49690833Y48612620D01*
X49595595Y48660239D01*
X49547976Y48755477D01*
X49547976Y48850715D01*
X49595595Y48945953D01*
X49690833Y48993572D01*
X49928928Y48993572D01*
X50024166Y49041191D01*
X50928928Y48612620D02*
X50928928Y49612620D01*
X50928928Y48660239D02*
X50833690Y48612620D01*
X50643214Y48612620D01*
X50547976Y48660239D01*
X50500357Y48707858D01*
X50452738Y48803096D01*
X50452738Y49088810D01*
X50500357Y49184048D01*
X50547976Y49231667D01*
X50643214Y49279286D01*
X50833690Y49279286D01*
X50928928Y49231667D01*
X51405119Y48612620D02*
X51405119Y49279286D01*
X51405119Y49612620D02*
X51357500Y49565000D01*
X51405119Y49517381D01*
X51452738Y49565000D01*
X51405119Y49612620D01*
X51405119Y49517381D01*
X52024166Y48612620D02*
X51928928Y48660239D01*
X51881309Y48707858D01*
X51833690Y48803096D01*
X51833690Y49088810D01*
X51881309Y49184048D01*
X51928928Y49231667D01*
X52024166Y49279286D01*
X52167023Y49279286D01*
X52262261Y49231667D01*
X52309880Y49184048D01*
X52357500Y49088810D01*
X52357500Y48803096D01*
X52309880Y48707858D01*
X52262261Y48660239D01*
X52167023Y48612620D01*
X52024166Y48612620D01*
X53357500Y48707858D02*
X53309880Y48660239D01*
X53167023Y48612620D01*
X53071785Y48612620D01*
X52928928Y48660239D01*
X52833690Y48755477D01*
X52786071Y48850715D01*
X52738452Y49041191D01*
X52738452Y49184048D01*
X52786071Y49374524D01*
X52833690Y49469762D01*
X52928928Y49565000D01*
X53071785Y49612620D01*
X53167023Y49612620D01*
X53309880Y49565000D01*
X53357500Y49517381D01*
X53643214Y49279286D02*
X54024166Y49279286D01*
X53786071Y49612620D02*
X53786071Y48755477D01*
X53833690Y48660239D01*
X53928928Y48612620D01*
X54024166Y48612620D01*
X54357500Y48612620D02*
X54357500Y49279286D01*
X54357500Y49088810D02*
X54405119Y49184048D01*
X54452738Y49231667D01*
X54547976Y49279286D01*
X54643214Y49279286D01*
X55119404Y48612620D02*
X55024166Y48660239D01*
X54976547Y48755477D01*
X54976547Y49612620D01*
X55500357Y48993572D02*
X56262261Y48993572D01*
X56928928Y49612620D02*
X57119404Y49612620D01*
X57214642Y49565000D01*
X57309880Y49469762D01*
X57357500Y49279286D01*
X57357500Y48945953D01*
X57309880Y48755477D01*
X57214642Y48660239D01*
X57119404Y48612620D01*
X56928928Y48612620D01*
X56833690Y48660239D01*
X56738452Y48755477D01*
X56690833Y48945953D01*
X56690833Y49279286D01*
X56738452Y49469762D01*
X56833690Y49565000D01*
X56928928Y49612620D01*
X57690833Y49279286D02*
X57928928Y48612620D01*
X58167023Y49279286D01*
X58928928Y48660239D02*
X58833690Y48612620D01*
X58643214Y48612620D01*
X58547976Y48660239D01*
X58500357Y48755477D01*
X58500357Y49136429D01*
X58547976Y49231667D01*
X58643214Y49279286D01*
X58833690Y49279286D01*
X58928928Y49231667D01*
X58976547Y49136429D01*
X58976547Y49041191D01*
X58500357Y48945953D01*
X59405119Y48612620D02*
X59405119Y49279286D01*
X59405119Y49088810D02*
X59452738Y49184048D01*
X59500357Y49231667D01*
X59595595Y49279286D01*
X59690833Y49279286D01*
X60024166Y48612620D02*
X60024166Y49279286D01*
X60024166Y49088810D02*
X60071785Y49184048D01*
X60119404Y49231667D01*
X60214642Y49279286D01*
X60309880Y49279286D01*
X60643214Y48612620D02*
X60643214Y49279286D01*
X60643214Y49612620D02*
X60595595Y49565000D01*
X60643214Y49517381D01*
X60690833Y49565000D01*
X60643214Y49612620D01*
X60643214Y49517381D01*
X61547976Y48612620D02*
X61547976Y49612620D01*
X61547976Y48660239D02*
X61452738Y48612620D01*
X61262261Y48612620D01*
X61167023Y48660239D01*
X61119404Y48707858D01*
X61071785Y48803096D01*
X61071785Y49088810D01*
X61119404Y49184048D01*
X61167023Y49231667D01*
X61262261Y49279286D01*
X61452738Y49279286D01*
X61547976Y49231667D01*
X62405119Y48660239D02*
X62309880Y48612620D01*
X62119404Y48612620D01*
X62024166Y48660239D01*
X61976547Y48755477D01*
X61976547Y49136429D01*
X62024166Y49231667D01*
X62119404Y49279286D01*
X62309880Y49279286D01*
X62405119Y49231667D01*
X62452738Y49136429D01*
X62452738Y49041191D01*
X61976547Y48945953D01*
X63500357Y49612620D02*
X63833690Y48612620D01*
X64167023Y49612620D01*
X65024166Y48612620D02*
X64452738Y48612620D01*
X64738452Y48612620D02*
X64738452Y49612620D01*
X64643214Y49469762D01*
X64547976Y49374524D01*
X64452738Y49326905D01*
X65452738Y48707858D02*
X65500357Y48660239D01*
X65452738Y48612620D01*
X65405119Y48660239D01*
X65452738Y48707858D01*
X65452738Y48612620D01*
X66119404Y49612620D02*
X66214642Y49612620D01*
X66309880Y49565000D01*
X66357500Y49517381D01*
X66405119Y49422143D01*
X66452738Y49231667D01*
X66452738Y48993572D01*
X66405119Y48803096D01*
X66357500Y48707858D01*
X66309880Y48660239D01*
X66214642Y48612620D01*
X66119404Y48612620D01*
X66024166Y48660239D01*
X65976547Y48707858D01*
X65928928Y48803096D01*
X65881309Y48993572D01*
X65881309Y49231667D01*
X65928928Y49422143D01*
X65976547Y49517381D01*
X66024166Y49565000D01*
X66119404Y49612620D01*
X48547976Y47907381D02*
X48595595Y47955000D01*
X48690833Y48002620D01*
X48928928Y48002620D01*
X49024166Y47955000D01*
X49071785Y47907381D01*
X49119404Y47812143D01*
X49119404Y47716905D01*
X49071785Y47574048D01*
X48500357Y47002620D01*
X49119404Y47002620D01*
X49738452Y48002620D02*
X49833690Y48002620D01*
X49928928Y47955000D01*
X49976547Y47907381D01*
X50024166Y47812143D01*
X50071785Y47621667D01*
X50071785Y47383572D01*
X50024166Y47193096D01*
X49976547Y47097858D01*
X49928928Y47050239D01*
X49833690Y47002620D01*
X49738452Y47002620D01*
X49643214Y47050239D01*
X49595595Y47097858D01*
X49547976Y47193096D01*
X49500357Y47383572D01*
X49500357Y47621667D01*
X49547976Y47812143D01*
X49595595Y47907381D01*
X49643214Y47955000D01*
X49738452Y48002620D01*
X50452738Y47907381D02*
X50500357Y47955000D01*
X50595595Y48002620D01*
X50833690Y48002620D01*
X50928928Y47955000D01*
X50976547Y47907381D01*
X51024166Y47812143D01*
X51024166Y47716905D01*
X50976547Y47574048D01*
X50405119Y47002620D01*
X51024166Y47002620D01*
X51357500Y48002620D02*
X51976547Y48002620D01*
X51643214Y47621667D01*
X51786071Y47621667D01*
X51881309Y47574048D01*
X51928928Y47526429D01*
X51976547Y47431191D01*
X51976547Y47193096D01*
X51928928Y47097858D01*
X51881309Y47050239D01*
X51786071Y47002620D01*
X51500357Y47002620D01*
X51405119Y47050239D01*
X51357500Y47097858D01*
X53119404Y48050239D02*
X52262261Y46764524D01*
X53643214Y48002620D02*
X53738452Y48002620D01*
X53833690Y47955000D01*
X53881309Y47907381D01*
X53928928Y47812143D01*
X53976547Y47621667D01*
X53976547Y47383572D01*
X53928928Y47193096D01*
X53881309Y47097858D01*
X53833690Y47050239D01*
X53738452Y47002620D01*
X53643214Y47002620D01*
X53547976Y47050239D01*
X53500357Y47097858D01*
X53452738Y47193096D01*
X53405119Y47383572D01*
X53405119Y47621667D01*
X53452738Y47812143D01*
X53500357Y47907381D01*
X53547976Y47955000D01*
X53643214Y48002620D01*
X54309880Y48002620D02*
X54976547Y48002620D01*
X54547976Y47002620D01*
X56071785Y48050239D02*
X55214642Y46764524D01*
X56928928Y47002620D02*
X56357500Y47002620D01*
X56643214Y47002620D02*
X56643214Y48002620D01*
X56547976Y47859762D01*
X56452738Y47764524D01*
X56357500Y47716905D01*
X57833690Y48002620D02*
X57357500Y48002620D01*
X57309880Y47526429D01*
X57357500Y47574048D01*
X57452738Y47621667D01*
X57690833Y47621667D01*
X57786071Y47574048D01*
X57833690Y47526429D01*
X57881309Y47431191D01*
X57881309Y47193096D01*
X57833690Y47097858D01*
X57786071Y47050239D01*
X57690833Y47002620D01*
X57452738Y47002620D01*
X57357500Y47050239D01*
X57309880Y47097858D01*
X59595595Y47955000D02*
X59500357Y48002620D01*
X59357500Y48002620D01*
X59214642Y47955000D01*
X59119404Y47859762D01*
X59071785Y47764524D01*
X59024166Y47574048D01*
X59024166Y47431191D01*
X59071785Y47240715D01*
X59119404Y47145477D01*
X59214642Y47050239D01*
X59357500Y47002620D01*
X59452738Y47002620D01*
X59595595Y47050239D01*
X59643214Y47097858D01*
X59643214Y47431191D01*
X59452738Y47431191D01*
X59928928Y48002620D02*
X60500357Y48002620D01*
X60214642Y47002620D02*
X60214642Y48002620D01*
X61214642Y47050239D02*
X61119404Y47002620D01*
X60928928Y47002620D01*
X60833690Y47050239D01*
X60786071Y47145477D01*
X60786071Y47526429D01*
X60833690Y47621667D01*
X60928928Y47669286D01*
X61119404Y47669286D01*
X61214642Y47621667D01*
X61262261Y47526429D01*
X61262261Y47431191D01*
X60786071Y47335953D01*
X62119404Y47050239D02*
X62024166Y47002620D01*
X61833690Y47002620D01*
X61738452Y47050239D01*
X61690833Y47097858D01*
X61643214Y47193096D01*
X61643214Y47478810D01*
X61690833Y47574048D01*
X61738452Y47621667D01*
X61833690Y47669286D01*
X62024166Y47669286D01*
X62119404Y47621667D01*
X62547976Y47002620D02*
X62547976Y48002620D01*
X62976547Y47002620D02*
X62976547Y47526429D01*
X62928928Y47621667D01*
X62833690Y47669286D01*
X62690833Y47669286D01*
X62595595Y47621667D01*
X62547976Y47574048D01*
X63500357Y47002620D02*
X63690833Y47002620D01*
X63786071Y47050239D01*
X63833690Y47097858D01*
X63928928Y47240715D01*
X63976547Y47431191D01*
X63976547Y47812143D01*
X63928928Y47907381D01*
X63881309Y47955000D01*
X63786071Y48002620D01*
X63595595Y48002620D01*
X63500357Y47955000D01*
X63452738Y47907381D01*
X63405119Y47812143D01*
X63405119Y47574048D01*
X63452738Y47478810D01*
X63500357Y47431191D01*
X63595595Y47383572D01*
X63786071Y47383572D01*
X63881309Y47431191D01*
X63928928Y47478810D01*
X63976547Y47574048D01*
X64452738Y47002620D02*
X64643214Y47002620D01*
X64738452Y47050239D01*
X64786071Y47097858D01*
X64881309Y47240715D01*
X64928928Y47431191D01*
X64928928Y47812143D01*
X64881309Y47907381D01*
X64833690Y47955000D01*
X64738452Y48002620D01*
X64547976Y48002620D01*
X64452738Y47955000D01*
X64405119Y47907381D01*
X64357500Y47812143D01*
X64357500Y47574048D01*
X64405119Y47478810D01*
X64452738Y47431191D01*
X64547976Y47383572D01*
X64738452Y47383572D01*
X64833690Y47431191D01*
X64881309Y47478810D01*
X64928928Y47574048D01*
X65262261Y48002620D02*
X65928928Y48002620D01*
X65500357Y47002620D01*
X66833690Y47002620D02*
X66262261Y47002620D01*
X66547976Y47002620D02*
X66547976Y48002620D01*
X66452738Y47859762D01*
X66357500Y47764524D01*
X66262261Y47716905D01*
X66206971Y28122598D02*
X66206971Y29122645D01*
X66587941Y29122645D01*
X66683184Y29075024D01*
X66730805Y29027403D01*
X66778427Y28932160D01*
X66778427Y28789296D01*
X66730805Y28694054D01*
X66683184Y28646432D01*
X66587941Y28598811D01*
X66206971Y28598811D01*
X67492746Y29122645D02*
X67492746Y28408326D01*
X67445125Y28265462D01*
X67349882Y28170220D01*
X67207018Y28122598D01*
X67111776Y28122598D01*
X67968959Y28503569D02*
X68730899Y28503569D01*
X69397597Y29122645D02*
X69492840Y29122645D01*
X69588082Y29075024D01*
X69635704Y29027403D01*
X69683325Y28932160D01*
X69730946Y28741675D01*
X69730946Y28503569D01*
X69683325Y28313083D01*
X69635704Y28217841D01*
X69588082Y28170220D01*
X69492840Y28122598D01*
X69397597Y28122598D01*
X69302355Y28170220D01*
X69254733Y28217841D01*
X69207112Y28313083D01*
X69159491Y28503569D01*
X69159491Y28741675D01*
X69207112Y28932160D01*
X69254733Y29027403D01*
X69302355Y29075024D01*
X69397597Y29122645D01*
X70350023Y29122645D02*
X70445266Y29122645D01*
X70540508Y29075024D01*
X70588129Y29027403D01*
X70635751Y28932160D01*
X70683372Y28741675D01*
X70683372Y28503569D01*
X70635751Y28313083D01*
X70588129Y28217841D01*
X70540508Y28170220D01*
X70445266Y28122598D01*
X70350023Y28122598D01*
X70254780Y28170220D01*
X70207159Y28217841D01*
X70159538Y28313083D01*
X70111917Y28503569D01*
X70111917Y28741675D01*
X70159538Y28932160D01*
X70207159Y29027403D01*
X70254780Y29075024D01*
X70350023Y29122645D01*
X71064342Y29027403D02*
X71111964Y29075024D01*
X71207206Y29122645D01*
X71445313Y29122645D01*
X71540555Y29075024D01*
X71588176Y29027403D01*
X71635798Y28932160D01*
X71635798Y28836918D01*
X71588176Y28694054D01*
X71016721Y28122598D01*
X71635798Y28122598D01*
X72016768Y28408326D02*
X72492981Y28408326D01*
X71921525Y28122598D02*
X72254874Y29122645D01*
X72588223Y28122598D01*
X72921572Y28122598D02*
X72921572Y29122645D01*
X72921572Y28646432D02*
X73493028Y28646432D01*
X73493028Y28122598D02*
X73493028Y29122645D01*
X57617380Y39899524D02*
X57617380Y39328096D01*
X57617380Y39613810D02*
X56617380Y39613810D01*
X56760238Y39518572D01*
X56855476Y39423334D01*
X56903095Y39328096D01*
X56617380Y40518572D02*
X56617380Y40613810D01*
X56665000Y40709048D01*
X56712619Y40756667D01*
X56807857Y40804286D01*
X56998333Y40851905D01*
X57236428Y40851905D01*
X57426904Y40804286D01*
X57522142Y40756667D01*
X57569761Y40709048D01*
X57617380Y40613810D01*
X57617380Y40518572D01*
X57569761Y40423334D01*
X57522142Y40375715D01*
X57426904Y40328096D01*
X57236428Y40280477D01*
X56998333Y40280477D01*
X56807857Y40328096D01*
X56712619Y40375715D01*
X56665000Y40423334D01*
X56617380Y40518572D01*
X57617380Y41280477D02*
X56617380Y41280477D01*
X57617380Y41851905D02*
X57045952Y41423334D01*
X56617380Y41851905D02*
X57188809Y41280477D01*
X17844047Y1817620D02*
X18177380Y817620D01*
X18510714Y1817620D01*
X19415476Y912858D02*
X19367857Y865239D01*
X19225000Y817620D01*
X19129761Y817620D01*
X18986904Y865239D01*
X18891666Y960477D01*
X18844047Y1055715D01*
X18796428Y1246191D01*
X18796428Y1389048D01*
X18844047Y1579524D01*
X18891666Y1674762D01*
X18986904Y1770000D01*
X19129761Y1817620D01*
X19225000Y1817620D01*
X19367857Y1770000D01*
X19415476Y1722381D01*
X20415476Y912858D02*
X20367857Y865239D01*
X20225000Y817620D01*
X20129761Y817620D01*
X19986904Y865239D01*
X19891666Y960477D01*
X19844047Y1055715D01*
X19796428Y1246191D01*
X19796428Y1389048D01*
X19844047Y1579524D01*
X19891666Y1674762D01*
X19986904Y1770000D01*
X20129761Y1817620D01*
X20225000Y1817620D01*
X20367857Y1770000D01*
X20415476Y1722381D01*
X21558333Y1865239D02*
X20701190Y579524D01*
X22225000Y1341429D02*
X21891666Y1341429D01*
X21891666Y817620D02*
X21891666Y1817620D01*
X22367857Y1817620D01*
X22653571Y1817620D02*
X22891666Y817620D01*
X23082142Y1531905D01*
X23272619Y817620D01*
X23510714Y1817620D01*
X24605952Y1865239D02*
X23748809Y579524D01*
X25272619Y1341429D02*
X25415476Y1293810D01*
X25463095Y1246191D01*
X25510714Y1150953D01*
X25510714Y1008096D01*
X25463095Y912858D01*
X25415476Y865239D01*
X25320238Y817620D01*
X24939285Y817620D01*
X24939285Y1817620D01*
X25272619Y1817620D01*
X25367857Y1770000D01*
X25415476Y1722381D01*
X25463095Y1627143D01*
X25463095Y1531905D01*
X25415476Y1436667D01*
X25367857Y1389048D01*
X25272619Y1341429D01*
X24939285Y1341429D01*
X25939285Y817620D02*
X25939285Y1817620D01*
X26510714Y817620D02*
X26082142Y1389048D01*
X26510714Y1817620D02*
X25939285Y1246191D01*
X9459285Y27202620D02*
X10078333Y27202620D01*
X9745000Y26821667D01*
X9887857Y26821667D01*
X9983095Y26774048D01*
X10030714Y26726429D01*
X10078333Y26631191D01*
X10078333Y26393096D01*
X10030714Y26297858D01*
X9983095Y26250239D01*
X9887857Y26202620D01*
X9602142Y26202620D01*
X9506904Y26250239D01*
X9459285Y26297858D01*
X10411666Y27202620D02*
X11030714Y27202620D01*
X10697380Y26821667D01*
X10840238Y26821667D01*
X10935476Y26774048D01*
X10983095Y26726429D01*
X11030714Y26631191D01*
X11030714Y26393096D01*
X10983095Y26297858D01*
X10935476Y26250239D01*
X10840238Y26202620D01*
X10554523Y26202620D01*
X10459285Y26250239D01*
X10411666Y26297858D01*
X11649761Y27202620D02*
X11745000Y27202620D01*
X11840238Y27155000D01*
X11887857Y27107381D01*
X11935476Y27012143D01*
X11983095Y26821667D01*
X11983095Y26583572D01*
X11935476Y26393096D01*
X11887857Y26297858D01*
X11840238Y26250239D01*
X11745000Y26202620D01*
X11649761Y26202620D01*
X11554523Y26250239D01*
X11506904Y26297858D01*
X11459285Y26393096D01*
X11411666Y26583572D01*
X11411666Y26821667D01*
X11459285Y27012143D01*
X11506904Y27107381D01*
X11554523Y27155000D01*
X11649761Y27202620D01*
X45552380Y22699524D02*
X45552380Y22128096D01*
X45552380Y22413810D02*
X44552380Y22413810D01*
X44695238Y22318572D01*
X44790476Y22223334D01*
X44838095Y22128096D01*
X44552380Y23318572D02*
X44552380Y23413810D01*
X44600000Y23509048D01*
X44647619Y23556667D01*
X44742857Y23604286D01*
X44933333Y23651905D01*
X45171428Y23651905D01*
X45361904Y23604286D01*
X45457142Y23556667D01*
X45504761Y23509048D01*
X45552380Y23413810D01*
X45552380Y23318572D01*
X45504761Y23223334D01*
X45457142Y23175715D01*
X45361904Y23128096D01*
X45171428Y23080477D01*
X44933333Y23080477D01*
X44742857Y23128096D01*
X44647619Y23175715D01*
X44600000Y23223334D01*
X44552380Y23318572D01*
X45552380Y24080477D02*
X44552380Y24080477D01*
X45552380Y24651905D02*
X44980952Y24223334D01*
X44552380Y24651905D02*
X45123809Y24080477D01*
X1722380Y37283096D02*
X722380Y37283096D01*
X1198571Y37283096D02*
X1198571Y37854524D01*
X1722380Y37854524D02*
X722380Y37854524D01*
X1722380Y38330715D02*
X722380Y38330715D01*
X1436666Y38664048D01*
X722380Y38997381D01*
X1722380Y38997381D01*
X1722380Y39997381D02*
X1722380Y39425953D01*
X1722380Y39711667D02*
X722380Y39711667D01*
X865238Y39616429D01*
X960476Y39521191D01*
X1008095Y39425953D01*
X722380Y40616429D02*
X722380Y40711667D01*
X770000Y40806905D01*
X817619Y40854524D01*
X912857Y40902143D01*
X1103333Y40949762D01*
X1341428Y40949762D01*
X1531904Y40902143D01*
X1627142Y40854524D01*
X1674761Y40806905D01*
X1722380Y40711667D01*
X1722380Y40616429D01*
X1674761Y40521191D01*
X1627142Y40473572D01*
X1531904Y40425953D01*
X1341428Y40378334D01*
X1103333Y40378334D01*
X912857Y40425953D01*
X817619Y40473572D01*
X770000Y40521191D01*
X722380Y40616429D01*
X1341428Y41378334D02*
X1341428Y42140239D01*
X1674761Y42568810D02*
X1722380Y42711667D01*
X1722380Y42949762D01*
X1674761Y43045000D01*
X1627142Y43092620D01*
X1531904Y43140239D01*
X1436666Y43140239D01*
X1341428Y43092620D01*
X1293809Y43045000D01*
X1246190Y42949762D01*
X1198571Y42759286D01*
X1150952Y42664048D01*
X1103333Y42616429D01*
X1008095Y42568810D01*
X912857Y42568810D01*
X817619Y42616429D01*
X770000Y42664048D01*
X722380Y42759286D01*
X722380Y42997381D01*
X770000Y43140239D01*
X722380Y43759286D02*
X722380Y43949762D01*
X770000Y44045000D01*
X865238Y44140239D01*
X1055714Y44187858D01*
X1389047Y44187858D01*
X1579523Y44140239D01*
X1674761Y44045000D01*
X1722380Y43949762D01*
X1722380Y43759286D01*
X1674761Y43664048D01*
X1579523Y43568810D01*
X1389047Y43521191D01*
X1055714Y43521191D01*
X865238Y43568810D01*
X770000Y43664048D01*
X722380Y43759286D01*
X1627142Y45187858D02*
X1674761Y45140239D01*
X1722380Y44997381D01*
X1722380Y44902143D01*
X1674761Y44759286D01*
X1579523Y44664048D01*
X1484285Y44616429D01*
X1293809Y44568810D01*
X1150952Y44568810D01*
X960476Y44616429D01*
X865238Y44664048D01*
X770000Y44759286D01*
X722380Y44902143D01*
X722380Y44997381D01*
X770000Y45140239D01*
X817619Y45187858D01*
X1722380Y45616429D02*
X722380Y45616429D01*
X1722380Y46187858D02*
X1150952Y45759286D01*
X722380Y46187858D02*
X1293809Y45616429D01*
X1198571Y46616429D02*
X1198571Y46949762D01*
X1722380Y47092620D02*
X1722380Y46616429D01*
X722380Y46616429D01*
X722380Y47092620D01*
X722380Y47378334D02*
X722380Y47949762D01*
X1722380Y47664048D02*
X722380Y47664048D01*
X33487380Y22754524D02*
X33487380Y22183096D01*
X33487380Y22468810D02*
X32487380Y22468810D01*
X32630238Y22373572D01*
X32725476Y22278334D01*
X32773095Y22183096D01*
X32487380Y23373572D02*
X32487380Y23468810D01*
X32535000Y23564048D01*
X32582619Y23611667D01*
X32677857Y23659286D01*
X32868333Y23706905D01*
X33106428Y23706905D01*
X33296904Y23659286D01*
X33392142Y23611667D01*
X33439761Y23564048D01*
X33487380Y23468810D01*
X33487380Y23373572D01*
X33439761Y23278334D01*
X33392142Y23230715D01*
X33296904Y23183096D01*
X33106428Y23135477D01*
X32868333Y23135477D01*
X32677857Y23183096D01*
X32582619Y23230715D01*
X32535000Y23278334D01*
X32487380Y23373572D01*
X33487380Y24135477D02*
X32487380Y24135477D01*
X33487380Y24706905D02*
X32915952Y24278334D01*
X32487380Y24706905D02*
X33058809Y24135477D01*
X25867380Y22804524D02*
X25867380Y22233096D01*
X25867380Y22518810D02*
X24867380Y22518810D01*
X25010238Y22423572D01*
X25105476Y22328334D01*
X25153095Y22233096D01*
X24867380Y23423572D02*
X24867380Y23518810D01*
X24915000Y23614048D01*
X24962619Y23661667D01*
X25057857Y23709286D01*
X25248333Y23756905D01*
X25486428Y23756905D01*
X25676904Y23709286D01*
X25772142Y23661667D01*
X25819761Y23614048D01*
X25867380Y23518810D01*
X25867380Y23423572D01*
X25819761Y23328334D01*
X25772142Y23280715D01*
X25676904Y23233096D01*
X25486428Y23185477D01*
X25248333Y23185477D01*
X25057857Y23233096D01*
X24962619Y23280715D01*
X24915000Y23328334D01*
X24867380Y23423572D01*
X25867380Y24185477D02*
X24867380Y24185477D01*
X25867380Y24756905D02*
X25295952Y24328334D01*
X24867380Y24756905D02*
X25438809Y24185477D01*
X52302380Y30629286D02*
X51302380Y30629286D01*
X51302380Y31010239D01*
X51350000Y31105477D01*
X51397619Y31153096D01*
X51492857Y31200715D01*
X51635714Y31200715D01*
X51730952Y31153096D01*
X51778571Y31105477D01*
X51826190Y31010239D01*
X51826190Y30629286D01*
X52302380Y31629286D02*
X51302380Y31629286D01*
X52207142Y32676905D02*
X52254761Y32629286D01*
X52302380Y32486429D01*
X52302380Y32391191D01*
X52254761Y32248334D01*
X52159523Y32153096D01*
X52064285Y32105477D01*
X51873809Y32057858D01*
X51730952Y32057858D01*
X51540476Y32105477D01*
X51445238Y32153096D01*
X51350000Y32248334D01*
X51302380Y32391191D01*
X51302380Y32486429D01*
X51350000Y32629286D01*
X51397619Y32676905D01*
X52302380Y33629286D02*
X52302380Y33057858D01*
X52302380Y33343572D02*
X51302380Y33343572D01*
X51445238Y33248334D01*
X51540476Y33153096D01*
X51588095Y33057858D01*
X51302380Y34486429D02*
X51302380Y34295953D01*
X51350000Y34200715D01*
X51397619Y34153096D01*
X51540476Y34057858D01*
X51730952Y34010239D01*
X52111904Y34010239D01*
X52207142Y34057858D01*
X52254761Y34105477D01*
X52302380Y34200715D01*
X52302380Y34391191D01*
X52254761Y34486429D01*
X52207142Y34534048D01*
X52111904Y34581667D01*
X51873809Y34581667D01*
X51778571Y34534048D01*
X51730952Y34486429D01*
X51683333Y34391191D01*
X51683333Y34200715D01*
X51730952Y34105477D01*
X51778571Y34057858D01*
X51873809Y34010239D01*
X51778571Y35343572D02*
X51778571Y35010239D01*
X52302380Y35010239D02*
X51302380Y35010239D01*
X51302380Y35486429D01*
X52302380Y36391191D02*
X52302380Y35819762D01*
X52302380Y36105477D02*
X51302380Y36105477D01*
X51445238Y36010239D01*
X51540476Y35915000D01*
X51588095Y35819762D01*
X51730952Y36962620D02*
X51683333Y36867381D01*
X51635714Y36819762D01*
X51540476Y36772143D01*
X51492857Y36772143D01*
X51397619Y36819762D01*
X51350000Y36867381D01*
X51302380Y36962620D01*
X51302380Y37153096D01*
X51350000Y37248334D01*
X51397619Y37295953D01*
X51492857Y37343572D01*
X51540476Y37343572D01*
X51635714Y37295953D01*
X51683333Y37248334D01*
X51730952Y37153096D01*
X51730952Y36962620D01*
X51778571Y36867381D01*
X51826190Y36819762D01*
X51921428Y36772143D01*
X52111904Y36772143D01*
X52207142Y36819762D01*
X52254761Y36867381D01*
X52302380Y36962620D01*
X52302380Y37153096D01*
X52254761Y37248334D01*
X52207142Y37295953D01*
X52111904Y37343572D01*
X51921428Y37343572D01*
X51826190Y37295953D01*
X51778571Y37248334D01*
X51730952Y37153096D01*
X51397619Y37724524D02*
X51350000Y37772143D01*
X51302380Y37867381D01*
X51302380Y38105477D01*
X51350000Y38200715D01*
X51397619Y38248334D01*
X51492857Y38295953D01*
X51588095Y38295953D01*
X51730952Y38248334D01*
X52302380Y37676905D01*
X52302380Y38295953D01*
X51302380Y38629286D02*
X51302380Y39295953D01*
X52302380Y38867381D01*
X74112380Y1453096D02*
X73112380Y1453096D01*
X73112380Y1834048D01*
X73160000Y1929286D01*
X73207619Y1976905D01*
X73302857Y2024524D01*
X73445714Y2024524D01*
X73540952Y1976905D01*
X73588571Y1929286D01*
X73636190Y1834048D01*
X73636190Y1453096D01*
X74112380Y2453096D02*
X73112380Y2453096D01*
X74017142Y3500715D02*
X74064761Y3453096D01*
X74112380Y3310239D01*
X74112380Y3215000D01*
X74064761Y3072143D01*
X73969523Y2976905D01*
X73874285Y2929286D01*
X73683809Y2881667D01*
X73540952Y2881667D01*
X73350476Y2929286D01*
X73255238Y2976905D01*
X73160000Y3072143D01*
X73112380Y3215000D01*
X73112380Y3310239D01*
X73160000Y3453096D01*
X73207619Y3500715D01*
X73731428Y3929286D02*
X73731428Y4691191D01*
X73112380Y5072143D02*
X74112380Y5310239D01*
X73398095Y5500715D01*
X74112380Y5691191D01*
X73112380Y5929286D01*
X74112380Y6881667D02*
X73636190Y6548334D01*
X74112380Y6310239D02*
X73112380Y6310239D01*
X73112380Y6691191D01*
X73160000Y6786429D01*
X73207619Y6834048D01*
X73302857Y6881667D01*
X73445714Y6881667D01*
X73540952Y6834048D01*
X73588571Y6786429D01*
X73636190Y6691191D01*
X73636190Y6310239D01*
X74112380Y7310239D02*
X73112380Y7310239D01*
X73112380Y7643572D02*
X73112380Y8215000D01*
X74112380Y7929286D02*
X73112380Y7929286D01*
X73588571Y8548334D02*
X73588571Y8881667D01*
X74112380Y9024524D02*
X74112380Y8548334D01*
X73112380Y8548334D01*
X73112380Y9024524D01*
X74112380Y10024524D02*
X73636190Y9691191D01*
X74112380Y9453096D02*
X73112380Y9453096D01*
X73112380Y9834048D01*
X73160000Y9929286D01*
X73207619Y9976905D01*
X73302857Y10024524D01*
X73445714Y10024524D01*
X73540952Y9976905D01*
X73588571Y9929286D01*
X73636190Y9834048D01*
X73636190Y9453096D01*
X29416428Y19781429D02*
X29559285Y19733810D01*
X29606904Y19686191D01*
X29654523Y19590953D01*
X29654523Y19448096D01*
X29606904Y19352858D01*
X29559285Y19305239D01*
X29464047Y19257620D01*
X29083095Y19257620D01*
X29083095Y20257620D01*
X29416428Y20257620D01*
X29511666Y20210000D01*
X29559285Y20162381D01*
X29606904Y20067143D01*
X29606904Y19971905D01*
X29559285Y19876667D01*
X29511666Y19829048D01*
X29416428Y19781429D01*
X29083095Y19781429D01*
X30083095Y19257620D02*
X30083095Y20257620D01*
X30654523Y19257620D02*
X30225952Y19829048D01*
X30654523Y20257620D02*
X30083095Y19686191D01*
X56602380Y33234524D02*
X56602380Y33329762D01*
X56650000Y33425000D01*
X56697619Y33472620D01*
X56792857Y33520239D01*
X56983333Y33567858D01*
X57221428Y33567858D01*
X57411904Y33520239D01*
X57507142Y33472620D01*
X57554761Y33425000D01*
X57602380Y33329762D01*
X57602380Y33234524D01*
X57554761Y33139286D01*
X57507142Y33091667D01*
X57411904Y33044048D01*
X57221428Y32996429D01*
X56983333Y32996429D01*
X56792857Y33044048D01*
X56697619Y33091667D01*
X56650000Y33139286D01*
X56602380Y33234524D01*
X57507142Y33996429D02*
X57554761Y34044048D01*
X57602380Y33996429D01*
X57554761Y33948810D01*
X57507142Y33996429D01*
X57602380Y33996429D01*
X56602380Y34663096D02*
X56602380Y34758334D01*
X56650000Y34853572D01*
X56697619Y34901191D01*
X56792857Y34948810D01*
X56983333Y34996429D01*
X57221428Y34996429D01*
X57411904Y34948810D01*
X57507142Y34901191D01*
X57554761Y34853572D01*
X57602380Y34758334D01*
X57602380Y34663096D01*
X57554761Y34567858D01*
X57507142Y34520239D01*
X57411904Y34472620D01*
X57221428Y34425000D01*
X56983333Y34425000D01*
X56792857Y34472620D01*
X56697619Y34520239D01*
X56650000Y34567858D01*
X56602380Y34663096D01*
X57602380Y35948810D02*
X57602380Y35377381D01*
X57602380Y35663096D02*
X56602380Y35663096D01*
X56745238Y35567858D01*
X56840476Y35472620D01*
X56888095Y35377381D01*
X56935714Y36805953D02*
X57602380Y36805953D01*
X56935714Y36377381D02*
X57459523Y36377381D01*
X57554761Y36425000D01*
X57602380Y36520239D01*
X57602380Y36663096D01*
X57554761Y36758334D01*
X57507142Y36805953D01*
X37957619Y1817620D02*
X38290952Y817620D01*
X38624285Y1817620D01*
X39529047Y912858D02*
X39481428Y865239D01*
X39338571Y817620D01*
X39243333Y817620D01*
X39100476Y865239D01*
X39005238Y960477D01*
X38957619Y1055715D01*
X38910000Y1246191D01*
X38910000Y1389048D01*
X38957619Y1579524D01*
X39005238Y1674762D01*
X39100476Y1770000D01*
X39243333Y1817620D01*
X39338571Y1817620D01*
X39481428Y1770000D01*
X39529047Y1722381D01*
X40529047Y912858D02*
X40481428Y865239D01*
X40338571Y817620D01*
X40243333Y817620D01*
X40100476Y865239D01*
X40005238Y960477D01*
X39957619Y1055715D01*
X39910000Y1246191D01*
X39910000Y1389048D01*
X39957619Y1579524D01*
X40005238Y1674762D01*
X40100476Y1770000D01*
X40243333Y1817620D01*
X40338571Y1817620D01*
X40481428Y1770000D01*
X40529047Y1722381D01*
X41671904Y1865239D02*
X40814761Y579524D01*
X42481428Y817620D02*
X42005238Y817620D01*
X42005238Y1817620D01*
X43148095Y1341429D02*
X42814761Y1341429D01*
X42814761Y817620D02*
X42814761Y1817620D01*
X43290952Y1817620D01*
X44386190Y1865239D02*
X43529047Y579524D01*
X45290952Y817620D02*
X44957619Y1293810D01*
X44719523Y817620D02*
X44719523Y1817620D01*
X45100476Y1817620D01*
X45195714Y1770000D01*
X45243333Y1722381D01*
X45290952Y1627143D01*
X45290952Y1484286D01*
X45243333Y1389048D01*
X45195714Y1341429D01*
X45100476Y1293810D01*
X44719523Y1293810D01*
X45719523Y817620D02*
X45719523Y1817620D01*
X2524761Y22852620D02*
X2572380Y22995477D01*
X2572380Y23233572D01*
X2524761Y23328810D01*
X2477142Y23376429D01*
X2381904Y23424048D01*
X2286666Y23424048D01*
X2191428Y23376429D01*
X2143809Y23328810D01*
X2096190Y23233572D01*
X2048571Y23043096D01*
X2000952Y22947858D01*
X1953333Y22900239D01*
X1858095Y22852620D01*
X1762857Y22852620D01*
X1667619Y22900239D01*
X1620000Y22947858D01*
X1572380Y23043096D01*
X1572380Y23281191D01*
X1620000Y23424048D01*
X1572380Y23709762D02*
X1572380Y24281191D01*
X2572380Y23995477D02*
X1572380Y23995477D01*
X2286666Y24566905D02*
X2286666Y25043096D01*
X2572380Y24471667D02*
X1572380Y24805000D01*
X2572380Y25138334D01*
X1572380Y25328810D02*
X1572380Y25900239D01*
X2572380Y25614524D02*
X1572380Y25614524D01*
X1572380Y26233572D02*
X2381904Y26233572D01*
X2477142Y26281191D01*
X2524761Y26328810D01*
X2572380Y26424048D01*
X2572380Y26614524D01*
X2524761Y26709762D01*
X2477142Y26757381D01*
X2381904Y26805000D01*
X1572380Y26805000D01*
X2524761Y27233572D02*
X2572380Y27376429D01*
X2572380Y27614524D01*
X2524761Y27709762D01*
X2477142Y27757381D01*
X2381904Y27805000D01*
X2286666Y27805000D01*
X2191428Y27757381D01*
X2143809Y27709762D01*
X2096190Y27614524D01*
X2048571Y27424048D01*
X2000952Y27328810D01*
X1953333Y27281191D01*
X1858095Y27233572D01*
X1762857Y27233572D01*
X1667619Y27281191D01*
X1620000Y27328810D01*
X1572380Y27424048D01*
X1572380Y27662143D01*
X1620000Y27805000D01*
X2191428Y28233572D02*
X2191428Y28995477D01*
X2572380Y29947858D02*
X2572380Y29471667D01*
X1572380Y29471667D01*
X2048571Y30281191D02*
X2048571Y30614524D01*
X2572380Y30757381D02*
X2572380Y30281191D01*
X1572380Y30281191D01*
X1572380Y30757381D01*
X2572380Y31185953D02*
X1572380Y31185953D01*
X1572380Y31424048D01*
X1620000Y31566905D01*
X1715238Y31662143D01*
X1810476Y31709762D01*
X2000952Y31757381D01*
X2143809Y31757381D01*
X2334285Y31709762D01*
X2429523Y31662143D01*
X2524761Y31566905D01*
X2572380Y31424048D01*
X2572380Y31185953D01*
X49601428Y19722620D02*
X49268095Y20198810D01*
X49030000Y19722620D02*
X49030000Y20722620D01*
X49410952Y20722620D01*
X49506190Y20675000D01*
X49553809Y20627381D01*
X49601428Y20532143D01*
X49601428Y20389286D01*
X49553809Y20294048D01*
X49506190Y20246429D01*
X49410952Y20198810D01*
X49030000Y20198810D01*
X50030000Y19722620D02*
X50030000Y20722620D01*
X41790952Y19807620D02*
X41314761Y19807620D01*
X41314761Y20807620D01*
X42457619Y20331429D02*
X42124285Y20331429D01*
X42124285Y19807620D02*
X42124285Y20807620D01*
X42600476Y20807620D01*
X53172380Y22709524D02*
X53172380Y22138096D01*
X53172380Y22423810D02*
X52172380Y22423810D01*
X52315238Y22328572D01*
X52410476Y22233334D01*
X52458095Y22138096D01*
X52172380Y23328572D02*
X52172380Y23423810D01*
X52220000Y23519048D01*
X52267619Y23566667D01*
X52362857Y23614286D01*
X52553333Y23661905D01*
X52791428Y23661905D01*
X52981904Y23614286D01*
X53077142Y23566667D01*
X53124761Y23519048D01*
X53172380Y23423810D01*
X53172380Y23328572D01*
X53124761Y23233334D01*
X53077142Y23185715D01*
X52981904Y23138096D01*
X52791428Y23090477D01*
X52553333Y23090477D01*
X52362857Y23138096D01*
X52267619Y23185715D01*
X52220000Y23233334D01*
X52172380Y23328572D01*
X53172380Y24090477D02*
X52172380Y24090477D01*
X53172380Y24661905D02*
X52600952Y24233334D01*
X52172380Y24661905D02*
X52743809Y24090477D01*
X67649902Y40562918D02*
X67649902Y41562965D01*
X67888009Y41562965D01*
X68030873Y41515344D01*
X68126115Y41420101D01*
X68173736Y41324859D01*
X68221358Y41134374D01*
X68221358Y40991510D01*
X68173736Y40801025D01*
X68126115Y40705782D01*
X68030873Y40610540D01*
X67888009Y40562918D01*
X67649902Y40562918D01*
X69221405Y40658161D02*
X69173783Y40610540D01*
X69030920Y40562918D01*
X68935677Y40562918D01*
X68792813Y40610540D01*
X68697571Y40705782D01*
X68649949Y40801025D01*
X68602328Y40991510D01*
X68602328Y41134374D01*
X68649949Y41324859D01*
X68697571Y41420101D01*
X68792813Y41515344D01*
X68935677Y41562965D01*
X69030920Y41562965D01*
X69173783Y41515344D01*
X69221405Y41467723D01*
X70888150Y41562965D02*
X70411937Y41562965D01*
X70364316Y41086752D01*
X70411937Y41134374D01*
X70507179Y41181995D01*
X70745286Y41181995D01*
X70840528Y41134374D01*
X70888150Y41086752D01*
X70935771Y40991510D01*
X70935771Y40753403D01*
X70888150Y40658161D01*
X70840528Y40610540D01*
X70745286Y40562918D01*
X70507179Y40562918D01*
X70411937Y40610540D01*
X70364316Y40658161D01*
X71221499Y41562965D02*
X71554848Y40562918D01*
X71888197Y41562965D01*
X21796428Y19781429D02*
X21463095Y19781429D01*
X21463095Y19257620D02*
X21463095Y20257620D01*
X21939285Y20257620D01*
X22225000Y20257620D02*
X22463095Y19257620D01*
X22653571Y19971905D01*
X22844047Y19257620D01*
X23082142Y20257620D01*
D11*
X55245000Y40940000D02*
X55245000Y40320000D01*
X56165000Y41860000D02*
G75*
G03*
X56165000Y41860000I-920000J0D01*
G01*
X16325000Y1915000D02*
X17825000Y1915000D01*
X16565000Y2155000D02*
X27885000Y2155000D01*
X16565000Y9275000D02*
X27885000Y9275000D01*
X16325000Y3655000D02*
X16325000Y1915000D01*
X16565000Y3715000D02*
X27885000Y3715000D01*
X16565000Y9275000D02*
X16565000Y2155000D01*
X27885000Y9275000D02*
X27885000Y2155000D01*
X18117000Y4383000D02*
G75*
G03*
X18752011Y4259507I607998J1431988D01*
G01*
X20157000Y5207000D02*
G75*
G03*
X20157109Y6422742I-1432003J607999D01*
G01*
X19333000Y7247000D02*
G75*
G03*
X18117258Y7247109I-608000J-1432000D01*
G01*
X18725000Y4260000D02*
G75*
G03*
X19332587Y4383615I0J1555000D01*
G01*
X17293000Y6423000D02*
G75*
G03*
X17292891Y5207258I1432000J-608000D01*
G01*
X27280000Y5815000D02*
G75*
G03*
X27280000Y5815000I-1555000J0D01*
G01*
X23780000Y5815000D02*
G75*
G03*
X23780000Y5815000I-1555000J0D01*
G01*
X11095000Y28575000D02*
X10475000Y28575000D01*
X12935000Y28575000D02*
G75*
G03*
X12935000Y28575000I-920000J0D01*
G01*
X43180000Y23740000D02*
X43180000Y23120000D01*
X44100000Y24660000D02*
G75*
G03*
X44100000Y24660000I-920000J0D01*
G01*
X2630000Y47180000D02*
X9100000Y47180000D01*
X9100000Y45820000D02*
X9447083Y45820000D01*
X2630000Y37120000D02*
X9100000Y37120000D01*
X2630000Y47408230D02*
X9100000Y47408230D01*
X2630000Y47750584D02*
X9100000Y47750584D01*
X2630000Y49240000D02*
X9100000Y49240000D01*
X2630000Y43180000D02*
X9100000Y43180000D01*
X2630000Y48092938D02*
X9100000Y48092938D01*
X2630000Y48549410D02*
X9100000Y48549410D01*
X10310000Y49240000D02*
X11245000Y49240000D01*
X2630000Y48321174D02*
X9100000Y48321174D01*
X9100000Y49240000D02*
X9100000Y37120000D01*
X9100000Y43820000D02*
X9447083Y43820000D01*
X9100000Y48540000D02*
X9375000Y48540000D01*
X2630000Y49240000D02*
X2630000Y37120000D01*
X9100000Y39820000D02*
X9447083Y39820000D01*
X11245000Y49240000D02*
X11245000Y48180000D01*
X2630000Y47978820D02*
X9100000Y47978820D01*
X9100000Y41820000D02*
X9447083Y41820000D01*
X2630000Y49005882D02*
X9100000Y49005882D01*
X2630000Y48435292D02*
X9100000Y48435292D01*
X2630000Y47864702D02*
X9100000Y47864702D01*
X2630000Y47636466D02*
X9100000Y47636466D01*
X2630000Y48663528D02*
X9100000Y48663528D01*
X2630000Y47522348D02*
X9100000Y47522348D01*
X2630000Y41180000D02*
X9100000Y41180000D01*
X2630000Y49120000D02*
X9100000Y49120000D01*
X9100000Y38540000D02*
X9447083Y38540000D01*
X2630000Y48207056D02*
X9100000Y48207056D01*
X2630000Y48777646D02*
X9100000Y48777646D01*
X2630000Y48891764D02*
X9100000Y48891764D01*
X9100000Y37820000D02*
X9447083Y37820000D01*
X2630000Y47294112D02*
X9100000Y47294112D01*
X2630000Y45180000D02*
X9100000Y45180000D01*
X9100000Y44540000D02*
X9447083Y44540000D01*
X9100000Y47820000D02*
X9375000Y47820000D01*
X9100000Y46540000D02*
X9447083Y46540000D01*
X9100000Y42540000D02*
X9447083Y42540000D01*
X9100000Y40540000D02*
X9447083Y40540000D01*
X2630000Y39180000D02*
X9100000Y39180000D01*
X31115000Y23795000D02*
X31115000Y23175000D01*
X32035000Y24715000D02*
G75*
G03*
X32035000Y24715000I-920000J0D01*
G01*
X23495000Y23845000D02*
X23495000Y23225000D01*
X24415000Y24765000D02*
G75*
G03*
X24415000Y24765000I-920000J0D01*
G01*
X27870000Y37565000D02*
X27870000Y32265000D01*
X50910000Y40055000D02*
X27810000Y40055000D01*
X27810000Y29775000D02*
X50910000Y29775000D01*
X27870000Y32265000D02*
X50850000Y32265000D01*
X50850000Y37565000D02*
X27870000Y37565000D01*
X50850000Y35915000D02*
X50850000Y37565000D01*
X50910000Y29775000D02*
X50910000Y40055000D01*
X50850000Y32265000D02*
X50850000Y33915000D01*
X27810000Y40055000D02*
X27810000Y29775000D01*
X50850000Y35915000D02*
G75*
G03*
X50850000Y33915000I0J-1000000D01*
G01*
X61355298Y1360000D02*
X61355298Y7830000D01*
X60328236Y1360000D02*
X60328236Y7830000D01*
X60100000Y1360000D02*
X60100000Y7830000D01*
X72100000Y1360000D02*
X72100000Y7830000D01*
X66680000Y7830000D02*
X66680000Y8177083D01*
X70040000Y1360000D02*
X70040000Y7830000D01*
X63400000Y7830000D02*
X63400000Y8177083D01*
X64040000Y1360000D02*
X64040000Y7830000D01*
X69400000Y7830000D02*
X69400000Y8177083D01*
X61811770Y1360000D02*
X61811770Y7830000D01*
X61469416Y1360000D02*
X61469416Y7830000D01*
X60670590Y1360000D02*
X60670590Y7830000D01*
X60680000Y7830000D02*
X60680000Y8105000D01*
X60442354Y1360000D02*
X60442354Y7830000D01*
X60214118Y1360000D02*
X60214118Y7830000D01*
X60898826Y1360000D02*
X60898826Y7830000D01*
X62040000Y1360000D02*
X62040000Y7830000D01*
X61127062Y1360000D02*
X61127062Y7830000D01*
X68680000Y7830000D02*
X68680000Y8177083D01*
X60556472Y1360000D02*
X60556472Y7830000D01*
X62680000Y7830000D02*
X62680000Y8177083D01*
X59980000Y9040000D02*
X59980000Y9975000D01*
X59980000Y1360000D02*
X59980000Y7830000D01*
X60784708Y1360000D02*
X60784708Y7830000D01*
X67400000Y7830000D02*
X67400000Y8177083D01*
X61583534Y1360000D02*
X61583534Y7830000D01*
X59980000Y9975000D02*
X61040000Y9975000D01*
X64680000Y7830000D02*
X64680000Y8177083D01*
X70680000Y7830000D02*
X70680000Y8177083D01*
X71400000Y7830000D02*
X71400000Y8177083D01*
X61241180Y1360000D02*
X61241180Y7830000D01*
X65400000Y7830000D02*
X65400000Y8177083D01*
X66040000Y1360000D02*
X66040000Y7830000D01*
X61400000Y7830000D02*
X61400000Y8105000D01*
X61012944Y1360000D02*
X61012944Y7830000D01*
X61697652Y1360000D02*
X61697652Y7830000D01*
X59980000Y1360000D02*
X72100000Y1360000D01*
X61925888Y1360000D02*
X61925888Y7830000D01*
X59980000Y7830000D02*
X72100000Y7830000D01*
X68040000Y1360000D02*
X68040000Y7830000D01*
X28045000Y14300000D02*
X31645000Y14300000D01*
X29845000Y18750001D02*
G75*
G03*
X28006522Y14311522I0J-2600001D01*
G01*
X31683478Y14311522D02*
G75*
G03*
X29845000Y18750000I-1838478J1838478D01*
G01*
X54325000Y34296000D02*
X54325000Y35554000D01*
X56165000Y34296000D02*
X56165000Y35554000D01*
X36183500Y9375500D02*
X36183500Y2255500D01*
X36183500Y2255500D02*
X47503500Y2255500D01*
X36183500Y9375500D02*
X47503500Y9375500D01*
X35943500Y3755500D02*
X35943500Y2015500D01*
X36183500Y3815500D02*
X47503500Y3815500D01*
X35943500Y2015500D02*
X37443500Y2015500D01*
X47503500Y9375500D02*
X47503500Y2255500D01*
X36911500Y6523500D02*
G75*
G03*
X36911391Y5307758I1432000J-608000D01*
G01*
X37735500Y4483500D02*
G75*
G03*
X38370511Y4360007I607998J1431988D01*
G01*
X38343500Y4360500D02*
G75*
G03*
X38951087Y4484115I0J1555000D01*
G01*
X39775500Y5307500D02*
G75*
G03*
X39775609Y6523242I-1432003J607999D01*
G01*
X38951500Y7347500D02*
G75*
G03*
X37735758Y7347609I-608000J-1432000D01*
G01*
X43398500Y5915500D02*
G75*
G03*
X43398500Y5915500I-1555000J0D01*
G01*
X46898500Y5915500D02*
G75*
G03*
X46898500Y5915500I-1555000J0D01*
G01*
X3844000Y25745000D02*
X4000000Y25745000D01*
X6160000Y25745000D02*
X6316000Y25745000D01*
X4001392Y28977335D02*
G75*
G03*
X3844484Y25745000I1078608J-1672335D01*
G01*
X6315516Y25745000D02*
G75*
G03*
X6158608Y28977335I-1235516J1560000D01*
G01*
X4000163Y28346130D02*
G75*
G03*
X4000000Y26264039I1079837J-1041130D01*
G01*
X6160000Y26264039D02*
G75*
G03*
X6159837Y28346130I-1080000J1040961D01*
G01*
X47730000Y14765000D02*
X51330000Y14765000D01*
X51368478Y14776522D02*
G75*
G03*
X49530000Y19215000I-1838478J1838478D01*
G01*
X49530000Y19215001D02*
G75*
G03*
X47691522Y14776522I0J-2600001D01*
G01*
X40110000Y14850000D02*
X43710000Y14850000D01*
X41910000Y19300001D02*
G75*
G03*
X40071522Y14861522I0J-2600001D01*
G01*
X43748478Y14861522D02*
G75*
G03*
X41910000Y19300000I-1838478J1838478D01*
G01*
X50800000Y23750000D02*
X50800000Y23130000D01*
X51720000Y24670000D02*
G75*
G03*
X51720000Y24670000I-920000J0D01*
G01*
D12*
X66512500Y29750000D02*
X66512500Y31600000D01*
X66512500Y38750000D02*
X67662500Y38750000D01*
X66512500Y36800000D02*
X66512500Y38750000D01*
X72762500Y38750000D02*
X80912500Y38750000D01*
X80912500Y38750000D02*
X80912500Y29750000D01*
X80912500Y29750000D02*
X66512500Y29750000D01*
D13*
X65412500Y34250000D02*
G75*
G03*
X65412500Y34250000I-200000J0D01*
G01*
D11*
X20425000Y14300000D02*
X24025000Y14300000D01*
X22225000Y18750001D02*
G75*
G03*
X20386522Y14311522I0J-2600001D01*
G01*
X24063478Y14311522D02*
G75*
G03*
X22225000Y18750000I-1838478J1838478D01*
G01*
M02*
