M48
; DRILL file {KiCad (6.0.11-0)} date 
; FORMAT={-:-/ absolute / metric / decimal}
; #@! TF.CreationDate,2023-07-15T22:38:09+09:00
; #@! TF.GenerationSoftware,Kicad,Pcbnew,(6.0.11-0)
; #@! TF.FileFunction,MixedPlating,1,2
FMAT,2
METRIC
; #@! TA.AperFunction,Plated,PTH,ViaDrill
T1C0.300
; #@! TA.AperFunction,Plated,PTH,ComponentDrill
T2C0.700
; #@! TA.AperFunction,Plated,PTH,ComponentDrill
T3C0.750
; #@! TA.AperFunction,Plated,PTH,ComponentDrill
T4C0.800
; #@! TA.AperFunction,Plated,PTH,ComponentDrill
T5C0.900
; #@! TA.AperFunction,Plated,PTH,ComponentDrill
T6C1.000
; #@! TA.AperFunction,Plated,PTH,ComponentDrill
T7C1.200
; #@! TA.AperFunction,NonPlated,NPTH,ComponentDrill
T8C3.200
%
G90
G05
T1
X4.445Y32.385
X4.445Y15.24
X4.445Y8.255
X15.875Y46.355
X15.875Y37.465
X15.875Y24.765
X15.875Y15.24
X24.13Y37.465
X26.67Y46.355
X27.305Y24.765
X35.56Y24.765
X35.56Y15.24
X36.83Y46.355
X36.83Y26.035
X37.465Y27.305
X40.005Y27.305
X40.005Y26.035
X48.26Y46.355
X53.975Y15.24
X53.975Y6.985
X60.96Y37.465
X60.96Y13.335
X61.595Y46.355
X61.595Y38.735
X62.23Y15.24
X64.77Y12.065
X68.58Y12.065
X71.755Y26.035
X71.755Y15.24
T2
X9.475Y28.575
X12.015Y28.575
X23.495Y24.765
X23.495Y22.225
X31.115Y24.715
X31.115Y22.175
X43.18Y24.66
X43.18Y22.12
X50.8Y24.67
X50.8Y22.13
X55.245Y41.86
X55.245Y39.32
T3
X20.955Y16.15
X22.225Y16.15
X23.495Y16.15
X28.575Y16.15
X29.845Y16.15
X31.115Y16.15
X40.64Y16.7
X41.91Y16.7
X43.18Y16.7
X48.26Y16.615
X49.53Y16.615
X50.8Y16.615
T4
X10.31Y48.18
X10.31Y46.18
X10.31Y44.18
X10.31Y42.18
X10.31Y40.18
X10.31Y38.18
X29.2Y38.725
X29.2Y31.105
X31.74Y38.725
X31.74Y31.105
X34.28Y38.725
X34.28Y31.105
X36.82Y38.725
X36.82Y31.105
X39.36Y38.725
X39.36Y31.105
X41.9Y38.725
X41.9Y31.105
X44.44Y38.725
X44.44Y31.105
X46.98Y38.725
X46.98Y31.105
X49.52Y38.725
X49.52Y31.105
X55.245Y36.175
X55.245Y33.675
X61.04Y9.04
X63.04Y9.04
X65.04Y9.04
X67.04Y9.04
X69.04Y9.04
X71.04Y9.04
T5
X5.08Y28.575
X5.08Y26.035
T7
X18.725Y5.815
X22.225Y5.815
X25.725Y5.815
X38.343Y5.915
X41.843Y5.915
X45.343Y5.915
T8
X3.81Y3.81
X71.12Y46.0
T6
G00X67.212Y35.5
M15
G01X67.212Y33.0
M16
G05
G00X69.212Y38.95
M15
G01X71.212Y38.95
M16
G05
G00X73.212Y35.25
M15
G01X73.212Y33.25
M16
G05
T0
M30
