G04 #@! TF.GenerationSoftware,KiCad,Pcbnew,(6.0.11-0)*
G04 #@! TF.CreationDate,2023-07-15T22:38:05+09:00*
G04 #@! TF.ProjectId,RadioCtrl-Override,52616469-6f43-4747-926c-2d4f76657272,rev?*
G04 #@! TF.SameCoordinates,PX7bfa480PY7bfa480*
G04 #@! TF.FileFunction,Soldermask,Bot*
G04 #@! TF.FilePolarity,Negative*
%FSLAX46Y46*%
G04 Gerber Fmt 4.6, Leading zero omitted, Abs format (unit mm)*
G04 Created by KiCad (PCBNEW (6.0.11-0)) date 2023-07-15 22:38:05*
%MOMM*%
%LPD*%
G01*
G04 APERTURE LIST*
%ADD10C,1.400000*%
%ADD11O,1.400000X1.400000*%
%ADD12R,2.400000X2.400000*%
%ADD13C,2.400000*%
%ADD14R,1.350000X1.350000*%
%ADD15O,1.350000X1.350000*%
%ADD16R,1.600000X1.600000*%
%ADD17O,1.600000X1.600000*%
%ADD18R,1.050000X1.500000*%
%ADD19O,1.050000X1.500000*%
%ADD20C,1.600000*%
%ADD21C,3.200000*%
%ADD22R,1.800000X1.800000*%
%ADD23C,1.800000*%
%ADD24O,2.500000X5.000000*%
%ADD25O,2.250000X4.500000*%
%ADD26O,4.500000X2.250000*%
%ADD27C,0.605000*%
G04 APERTURE END LIST*
D10*
X55245000Y41860000D03*
D11*
X55245000Y39320000D03*
D12*
X18725000Y5815000D03*
D13*
X22225000Y5815000D03*
X25725000Y5815000D03*
D10*
X12015000Y28575000D03*
D11*
X9475000Y28575000D03*
D10*
X43180000Y24660000D03*
D11*
X43180000Y22120000D03*
D14*
X10310000Y48180000D03*
D15*
X10310000Y46180000D03*
X10310000Y44180000D03*
X10310000Y42180000D03*
X10310000Y40180000D03*
X10310000Y38180000D03*
D10*
X31115000Y24715000D03*
D11*
X31115000Y22175000D03*
D10*
X23495000Y24765000D03*
D11*
X23495000Y22225000D03*
D16*
X49520000Y38725000D03*
D17*
X46980000Y38725000D03*
X44440000Y38725000D03*
X41900000Y38725000D03*
X39360000Y38725000D03*
X36820000Y38725000D03*
X34280000Y38725000D03*
X31740000Y38725000D03*
X29200000Y38725000D03*
X29200000Y31105000D03*
X31740000Y31105000D03*
X34280000Y31105000D03*
X36820000Y31105000D03*
X39360000Y31105000D03*
X41900000Y31105000D03*
X44440000Y31105000D03*
X46980000Y31105000D03*
X49520000Y31105000D03*
D14*
X61040000Y9040000D03*
D15*
X63040000Y9040000D03*
X65040000Y9040000D03*
X67040000Y9040000D03*
X69040000Y9040000D03*
X71040000Y9040000D03*
D18*
X28575000Y16150000D03*
D19*
X29845000Y16150000D03*
X31115000Y16150000D03*
D20*
X55245000Y33675000D03*
X55245000Y36175000D03*
D12*
X38343500Y5915500D03*
D13*
X41843500Y5915500D03*
X45343500Y5915500D03*
D21*
X71120000Y46000000D03*
X3810000Y3810000D03*
D22*
X5080000Y26035000D03*
D23*
X5080000Y28575000D03*
D18*
X48260000Y16615000D03*
D19*
X49530000Y16615000D03*
X50800000Y16615000D03*
D18*
X40640000Y16700000D03*
D19*
X41910000Y16700000D03*
X43180000Y16700000D03*
D10*
X50800000Y24670000D03*
D11*
X50800000Y22130000D03*
D24*
X67212500Y34250000D03*
D25*
X73212500Y34250000D03*
D26*
X70212500Y38950000D03*
D18*
X20955000Y16150000D03*
D19*
X22225000Y16150000D03*
X23495000Y16150000D03*
D27*
X4445000Y32385000D03*
X53975000Y15240000D03*
X15875000Y46355000D03*
X71755000Y15240000D03*
X53975000Y6985000D03*
X61595000Y46355000D03*
X35560000Y15240000D03*
X71755000Y26035000D03*
X15875000Y24765000D03*
X4445000Y15240000D03*
X26670000Y46355000D03*
X15875000Y37465000D03*
X48260000Y46355000D03*
X15875000Y15240000D03*
X4445000Y8255000D03*
X36830000Y46355000D03*
X35560000Y24765000D03*
X62230000Y15240000D03*
X61595000Y38735000D03*
X27305000Y24765000D03*
X24130000Y37465000D03*
X60960000Y37465000D03*
X60960000Y13335000D03*
X40005000Y27305000D03*
X37465000Y27305000D03*
X68580000Y12065000D03*
X64770000Y12065000D03*
X40005000Y26035000D03*
X36830000Y26035000D03*
M02*
